<svg version="1.0" xmlns="http://www.w3.org/2000/svg" viewBox="0 0 1085 109.87">
  <g fill="#F7F7F7">
    <path d="M500.66 53.07h-4.2l8.19 16.85c.82 1.68.27 3.73-1.28 4.78l-5.2 3.51c-.04-.08-.07-.16-.1-.25l-12.1-24.9h-4.2l12.91 26.55c2.28 4.68.32 10.34-4.36 12.62-4.68 2.28-10.34.32-12.62-4.36l-16.92-34.8h-4.2l17.72 36.45c.04.08.09.15.13.23l-5.97 1.92c-1.78.57-3.73-.27-4.55-1.95l-17.82-36.66h-4.2l18.62 38.31c1.63 3.36 5.54 5.03 9.1 3.89l7.14-2.29c3.87 3.95 9.98 5.2 15.22 2.65 5.24-2.55 8.03-8.12 7.31-13.61l6.21-4.2c3.09-2.09 4.19-6.2 2.56-9.56l-7.39-15.18z"/>
    <path d="M484.38 72.65l-5.79-2c-.67-.23-1.22-.71-1.53-1.36s-.36-1.37-.12-2.04l2.26-6.52c.56-1.63.46-3.38-.3-4.92-.56-1.16-1.44-2.1-2.52-2.73h-10.42c.46.31.95.59 1.49.77l6.53 2.26c.67.23 1.22.71 1.53 1.36.31.64.36 1.37.12 2.04l-2.26 6.52c-.56 1.63-.46 3.38.3 4.92.75 1.55 2.06 2.71 3.69 3.27l5.79 2c.49.17 1.01.13 1.44-.09.43-.21.79-.59.96-1.08.33-.98-.19-2.06-1.17-2.4z"/>
  </g>
  <path fill="#F7F7F7" d="M142.93 58c.43-.49.8-1.04 1.05-1.68.42-1.07.75-2.16 1-3.25h-3.9c-.18.63-.38 1.26-.62 1.88-.38.97-1.47 1.45-2.44 1.08l-7.62-2.96h-10.44l16.69 6.48 4.4 1.71c.49.19.73.74.54 1.22s-.74.73-1.22.54L137.72 62l-22.99-8.92h-10.44l32.06 12.44c.97.38 1.45 1.47 1.08 2.44-.38.97-1.47 1.45-2.44 1.08l-1.76-.68-7.04-2.73-7.04-2.73-15.84-6.15-2.81-1.09c-1.99-.77-4.21-.85-6.25-.21l-8.07 2.54c-.67.21-1.37-.54-1.12-1.19l1.04-2.67c.13-.34.19-.69.22-1.04h-3.87l-.91 2.35c-.11.29-.19.58-.24.88l-8.32-3.23H60.19c-.01.03-.03.05-.04.08-.49 1.26-.39 2.6.15 3.73-1.27.73-2.32 1.85-2.88 3.31-1.02 2.63-.22 5.52 1.77 7.3-.56.55-1.02 1.21-1.32 1.99-2.26 5.82.64 12.4 6.46 14.66l49.28 19.12c5.82 2.26 12.4-.64 14.66-6.46.3-.78.41-1.58.36-2.36 2.67.03 5.21-1.56 6.23-4.2.57-1.46.55-3 .1-4.39 1.16-.47 2.14-1.39 2.63-2.65.87-2.24-.11-4.73-2.17-5.84.43-.49.8-1.04 1.05-1.68.37-.95.44-1.92.3-2.86 1.84-.36 3.47-1.62 4.19-3.49.32-.83.41-1.69.34-2.52 1.66-.21 3.16-1.28 3.81-2.95.86-2.27-.12-4.76-2.18-5.88zm-20.55 12.22c.38-.97 1.47-1.45 2.44-1.08l7.04 2.73c.97.38 1.45 1.47 1.08 2.44-.38.97-1.47 1.45-2.44 1.08l-7.04-2.73c-.97-.38-1.46-1.47-1.08-2.44zM99.5 61.34c.38-.97 1.47-1.45 2.44-1.08l15.84 6.15c.97.38 1.45 1.47 1.08 2.44s-1.47 1.45-2.44 1.08l-15.84-6.15c-.97-.37-1.46-1.47-1.08-2.44zm-4.11-2.29c.22-.07.44-.11.66-.15.08.35.07.72-.07 1.07-.38.97-1.47 1.45-2.44 1.08l-2.02-.78 3.87-1.22zm29.35 36.38c-1.51 3.88-5.89 5.81-9.77 4.31L65.69 80.62c-3.88-1.51-5.81-5.89-4.31-9.77.38-.97 1.47-1.45 2.44-1.08l59.84 23.22c.98.38 1.46 1.47 1.08 2.44zm6.6-6.55c-.56 1.46-2.21 2.18-3.66 1.62l-2.64-1.02-59.85-23.23-2.64-1.02c-1.46-.56-2.18-2.21-1.62-3.66.56-1.46 2.21-2.18 3.66-1.62l65.12 25.27c1.47.56 2.19 2.2 1.63 3.66zm2.73-7.04c-.19.49-.74.73-1.22.54l-1.76-.68-65.12-25.27-1.76-.68c-.49-.19-.73-.74-.54-1.22s.74-.73 1.22-.54l4.4 1.71 14.93 5.79 7.95 3.09 7.04 2.73 15.84 6.15 7.04 2.73 7.04 2.73 4.4 1.71c.49.18.73.73.54 1.21zM847.8 53.07h-3.95l10.03 33.09-1.8.79c-.93.41-1.92.66-2.93.75l-4.42.4c-3.95.36-7.79 1.35-11.41 2.94-3.63 1.59-6.96 3.74-9.9 6.4l-3.29 2.97c-.75.68-1.61 1.23-2.54 1.64l-1.8.79-22.29-37.91c-.91-1.56-1.77-3.16-2.54-4.8l5.64-2.47c1.04-.46 2.29-.31 3.42.39 4.59 2.86 12.54 2.92 18.9.13h.02c2.78-1.22 5.36-3.02 7.48-5.11h-6.02c-.42.28-.85.56-1.29.8l-.35-.8h-4.12l1.01 2.32c-1.22.4-2.48.68-3.75.86l-1.39-3.17h-4.12l1.47 3.35c-1.67-.09-3.22-.39-4.53-.93l-1.06-2.43h-8.24l.59 1.34-3.46 1.51-1.25-2.85h-4.12l1.91 4.37c-.95.42-1.39 1.53-.97 2.49 1.03 2.36 2.22 4.69 3.53 6.91l23.12 39.36c.48.82 1.51 1.16 2.39.77l3.34-1.46c1.3-.57 2.5-1.34 3.56-2.3l3.29-2.97c5.28-4.76 12.05-7.73 19.13-8.37l4.42-.4c1.42-.13 2.8-.48 4.1-1.05l3.34-1.46c.88-.38 1.33-1.36 1.05-2.28l-10.2-33.61z"/>
  <g fill="#F7F7F7">
    <path d="M672.02 60.78l-1.84-.74c.68-2.31.88-4.67.68-6.96h-3.8c.21 1.82.09 3.69-.4 5.54l-1.78-.72c.4-1.61.47-3.24.27-4.82h-3.81c.2 1.1.21 2.25 0 3.39l-1.82-.74c.12-.9.06-1.79-.14-2.65h-3.96c.18.36.3.74.36 1.14l-2.82-1.14h-10.08l1.47.59 22.75 9.2 3.5 1.41c.96.39 1.43 1.49 1.04 2.46-5.07 12.55-19.4 18.63-31.95 13.56l-24.5-9.9c-7.72-3.12-12.99-9.75-14.72-17.32h-3.85c1.68 8.48 7.21 16.04 15.44 20.02l-1.45 3.59c-.39.97.08 2.07 1.04 2.46l24.5 9.9c.97.39 2.07-.08 2.46-1.04l1.45-3.59c14.03 4.61 29.47-2.38 35.08-16.26 1.18-2.9-.23-6.21-3.12-7.38zm-36.2 24.06l-21-8.49.71-1.75 21 8.49-.71 1.75z"/>
    <circle cx="633.81" cy="59.59" r="1.89"/>
    <circle cx="642.56" cy="63.13" r="1.89"/>
    <circle cx="651.32" cy="66.66" r="1.89"/>
    <circle cx="660.07" cy="70.2" r="1.89"/>
    <path d="M614.52 53.07c.16.52.54.97 1.09 1.19.97.39 2.07-.08 2.46-1.04.02-.05.03-.1.04-.15h-3.59z"/>
    <circle cx="625.06" cy="56.05" r="1.89"/>
  </g>
  <g fill="#F7F7F7">
    <path d="M703.41 71.18c.35-.33.57-.8.58-1.32l.19-8.01c.02-1.04-.8-1.91-1.84-1.93-1.04-.02-1.91.8-1.93 1.84l-.19 8.01c-.02 1.04.8 1.91 1.84 1.93.53.01 1-.19 1.35-.52zM708.85 53.07c-.14.26-.24.55-.25.87l-.19 8.01c-.02 1.04.8 1.91 1.84 1.93.52.01 1-.19 1.35-.52.35-.33.57-.8.58-1.32l.19-8.01c.01-.35-.09-.67-.24-.96h-3.28zM716.64 53.07l-.03 1.06c-.02 1.04.8 1.91 1.84 1.93.52.01 1-.19 1.35-.52.35-.33.57-.8.58-1.32l.03-1.15h-3.77z"/>
    <path d="M768.79 53.07c-.13 1.8-.9 3.56-2.31 4.9l-43.71 41.7c-3.01 2.87-7.8 2.76-10.68-.25-.22-.23-.35-.5-.43-.79 2.76-.17 5.29-1.24 7.2-3.06 1.51-1.44 2.58-3.31 3.11-5.41.27-1.08 1.18-1.95 2.27-2.17 4.24-.84 7.62-4.06 8.66-8.26.27-1.08 1.18-1.95 2.27-2.17 4.24-.84 7.62-4.06 8.66-8.26.27-1.08 1.18-1.95 2.27-2.17 4.24-.84 7.62-4.06 8.66-8.26.27-1.08 1.18-1.95 2.27-2.17 2.12-.42 4.04-1.4 5.55-2.85.27-.26.52-.53.76-.81h-7.23c-1.19.27-2.27.86-3.13 1.68-.9.86-1.57 1.98-1.88 3.23-.7 2.8-2.89 4.9-5.73 5.46-2.53.5-4.57 2.45-5.2 4.96-.7 2.8-2.89 4.9-5.73 5.46-2.53.5-4.57 2.45-5.2 4.96-.7 2.8-2.89 4.9-5.73 5.46-2.53.5-4.57 2.45-5.2 4.96-.85 3.44-3.98 5.73-7.71 5.63-.14 0-.32-.1-.47-.26-.32-.33-.3-.86.03-1.18l1.45-1.38 21.86-20.85 6.83-6.52 12.19-11.63h-5.47l-9.33 8.9c-1.13 1.08-2.93 1.04-4-.09-1.08-1.13-1.04-2.93.09-4l5.03-4.8h-5.47l-2.17 2.07-6.83 6.52-21.86 20.85-1.37 1.3c-.38.36-.98.34-1.33-.03s-.35-.98.03-1.33l30.79-29.37h-5.47L697.2 79.71l-.68.65c-.75.72-1.95.69-2.67-.06-4.31-4.52-4.14-11.7.38-16.01l11.75-11.21h-5.47l-8.89 8.48c-6.03 5.75-6.25 15.33-.5 21.35 1.3 1.37 3.13 1.92 4.87 1.68.21.65.55 1.27 1.05 1.79.93.98 2.19 1.46 3.44 1.45.12 1.45.69 2.88 1.77 4.02 1.07 1.12 2.45 1.76 3.88 1.95-.07 1.23.34 2.47 1.25 3.43.14.14.29.26.43.38-.15 1.6.39 3.22 1.54 4.42 4.31 4.52 11.49 4.69 16.01.38l43.71-41.7c2.18-2.08 3.34-4.84 3.48-7.64h-3.76zm-59.8 36.27c-1.13 1.08-2.93 1.04-4-.09-1.08-1.13-1.04-2.93.09-4l21.86-20.85c1.13-1.08 2.93-1.04 4 .09 1.08 1.13 1.04 2.93-.09 4l-21.86 20.85z"/>
  </g>
  <g fill="#F7F7F7">
    <circle cx="194.83" cy="68.12" r="1.89"/>
    <circle cx="181.22" cy="87" r="1.89"/>
    <circle cx="185.39" cy="56.8" r="1.89"/>
    <circle cx="204.27" cy="70.01" r="1.89"/>
    <path d="M205.45 53.07c.2.58.31 1.19.31 1.83 0 3.12-2.54 5.66-5.66 5.66s-5.66-2.54-5.66-5.66c0-.64.11-1.26.31-1.83h-3.9c-.12.59-.18 1.21-.18 1.83 0 5.2 4.23 9.44 9.44 9.44 5.2 0 9.44-4.23 9.44-9.44 0-.63-.06-1.24-.18-1.83h-3.92z"/>
    <path d="M220.9 53.07c.29.25.58.49.86.75l-6.56 6.49V56.8c0-1.04-.84-1.89-1.89-1.89s-1.89.84-1.89 1.89v26.43c0 1.04-.85 1.89-1.89 1.89s-1.89-.85-1.89-1.89v-1.04c0-2.68-1.25-4.81-3.35-5.69-1.95-.82-4.19-.33-5.82 1.26l-21.03 19.95v-14.7c.62.13 1.25.22 1.89.22 5.2 0 9.44-4.23 9.44-9.44s-4.23-9.44-9.44-9.44c-.64 0-1.27.09-1.89.22v-11.5h-3.78v49.03c0 .75.45 1.44 1.14 1.73.24.1.49.15.74.15.47 0 .94-.18 1.3-.52l24.24-22.99c.55-.54 1.21-.72 1.74-.5.65.27 1.04 1.1 1.04 2.21v1.04c0 3.12 2.54 5.66 5.66 5.66s5.66-2.54 5.66-5.66v-17.6l10.62-10.51c.01-.01.01-.02.02-.03.01-.01.02-.01.03-.02l1.84-1.99h-6.79zm-43.46 15.44c.62-.23 1.24-.39 1.89-.39 3.12 0 5.66 2.54 5.66 5.66s-2.54 5.66-5.66 5.66c-.64 0-1.27-.16-1.89-.39V68.51z"/>
  </g>
  <g fill="#F7F7F7">
    <path d="M424.05 53.07h-3.96c1.23 3.61 1.09 7.66-.61 11.29l-1.61-1.02c1.49-3.32 1.5-7.03.23-10.27h-4.2c1.47 2.45 1.79 5.48.75 8.22l-1.66-1.05c.79-2.48.25-5.2-1.42-7.17h-16.96l23.05 14.6-8.05 3.27c-1.69.69-3.62.51-5.16-.46l-22.14-14.03c-1.23-.78-2.09-2-2.45-3.38h-3.85c.41 2.69 1.95 5.1 4.27 6.57l22.14 14.03c2.57 1.63 5.79 1.92 8.6.77l4.54-1.84-22.16 26.92c-.6.73-1.66.9-2.47.39l-29.45-18.66c-.8-.51-1.1-1.54-.7-2.4l12.15-25.78h-4.17l-11.39 24.17c-1.22 2.58-.32 5.67 2.09 7.2l29.45 18.66c2.41 1.53 5.59 1.02 7.4-1.18l23.31-28.3-.44 9.55c-.03.7.32 1.33.88 1.68.27.17.58.28.92.29 1.04.05 1.92-.76 1.97-1.8l.69-15.2c.03-.68-.3-1.32-.88-1.68l-.08-.05c2.15-4.25 2.53-8.99 1.37-13.34zm-19.96 1.54c1.15-.6 2.58-.6 3.76.14 1.18.74 1.78 2.04 1.74 3.33l-5.5-3.47z"/>
    <path d="M389.34 69.85c-3.52-2.23-8.19-1.18-10.42 2.34s-1.18 8.19 2.34 10.42 8.19 1.18 10.42-2.34 1.18-8.19-2.34-10.42zm-6.06 9.57c-1.76-1.11-2.28-3.45-1.17-5.21s3.45-2.28 5.21-1.17c1.76 1.11 2.28 3.45 1.17 5.21s-3.45 2.28-5.21 1.17zM399.07 82.72l-3.19-2.02c-.88-.56-2.05-.3-2.6.58-.56.88-.3 2.05.58 2.6l3.19 2.02c.88.56 2.05.3 2.6-.58.56-.88.3-2.05-.58-2.6zM376.74 68.57l-3.19-2.02c-.88-.56-2.05-.3-2.6.58-.56.88-.3 2.05.58 2.6l3.19 2.02c.88.56 2.05.3 2.6-.58.57-.87.3-2.04-.58-2.6z"/>
  </g>
  <g fill="#F7F7F7">
    <path d="M264.94 106.22c-.97.38-1.46 1.47-1.08 2.44.38.97 1.47 1.46 2.44 1.08.97-.38 1.46-1.47 1.08-2.44-.38-.97-1.47-1.46-2.44-1.08zM333.63 79.74l-7.05 2.72c-1.94.75-4.13-.22-4.88-2.16l-5.49-14.23c4.65-2.61 7.24-7.77 6.66-12.98h-19.81c-1.12.43-2.18 1.04-3.11 1.8-.17-.6-.31-1.2-.44-1.8h-3.87c.41 2.12 1 4.2 1.78 6.22 2.39 6.2 8.97 9.56 15.27 8.12l5.49 14.23c.75 1.94-.22 4.13-2.16 4.88l-10.89 4.2c-.02-.63-.12-1.27-.35-1.89l-13.79-35.76h-4.06c.03.06.06.12.09.19l2.02 5.23-3.52 1.36c-.38-.97-1.47-1.46-2.44-1.08l-14.09 5.43c-.97.38-1.46 1.47-1.08 2.44L264.37 68l-2.02-5.23c-1.3-3.36-.54-7.08 1.88-9.69h-4.65c-1.84 3.33-2.17 7.35-.75 11.05l14.24 36.94c.24.62.59 1.16 1 1.64l-3.85 1.48c-.97.38-1.46 1.47-1.08 2.44s1.47 1.46 2.44 1.08l63.41-24.45c.97-.38 1.46-1.47 1.08-2.44-.37-.97-1.46-1.46-2.44-1.08zm-32.25-20.95c1.74-2.12 4.94-3.21 7.56-2.5.08.02.58.12.58.13 2.25.63 4.69.46 6.88-.38.99-.38 1.92-.92 2.77-1.56.02 3.81-2.25 7.43-6.01 8.88-4.56 1.75-9.61-.31-11.78-4.57zm-18.72 4.18l5.43 14.09-10.57 4.07-5.43-14.09 10.57-4.07zm17.51 29.67l-1.03.4c-1.14.44-2.37.41-3.49-.09-2.03-.9-4.3-.96-6.38-.16l-2.06.8c-2.08.8-3.72 2.36-4.62 4.4-.49 1.11-1.39 1.97-2.53 2.41l-1.03.4c-.97.37-2.07-.11-2.44-1.08l-10.86-28.18 3.52-1.36 5.43 14.09c.38.97 1.47 1.46 2.44 1.08l14.09-5.43c.97-.38 1.46-1.47 1.08-2.44l-5.43-14.09 3.52-1.36 10.86 28.18c.38.96-.1 2.05-1.07 2.43zM338.92 77.7c-.97.38-1.46 1.47-1.08 2.44.38.97 1.47 1.46 2.44 1.08s1.46-1.47 1.08-2.44c-.38-.97-1.47-1.46-2.44-1.08z"/>
    <path d="M278.05 66.77c-.97.38-1.46 1.47-1.08 2.44.38.97 1.47 1.46 2.44 1.08.97-.38 1.46-1.47 1.08-2.44-.37-.97-1.46-1.46-2.44-1.08z"/>
  </g>
  <path fill="#F7F7F7" d="M576.4 96.95l-5.53 1.21c-2.03.45-4.05-.85-4.5-2.88l-6.54-29.77c.89-.46 1.69-1.09 2.31-1.87l8.41-10.56h-16.52c1.74 2.17 4.61 3.31 7.51 2.67 1.43-.31 2.66-1.03 3.64-1.99l-6 7.54c-.95 1.21-2.81 1.64-4.22.92l-18.16-9.14h-8.4l24.85 12.51c.89.46 1.88.69 2.88.74l6.54 29.78c.45 2.03-.84 4.05-2.88 4.5l-5.53 1.21c-1.02.22-1.66 1.23-1.44 2.25.22 1.02 1.23 1.66 2.25 1.44l5.53-1.21 11.06-2.43 5.53-1.21c1.02-.22 1.66-1.23 1.44-2.25-.2-1.04-1.21-1.69-2.23-1.46z"/>
  <g fill="#F7F7F7">
    <path d="M1002.82 86.65l-4.24 2.71c-1.56.99-3.63.54-4.63-1.02l-11.79-18.46c4.91-4.08 6.28-11.16 3.14-16.8h-3.93l.7 1.09c2.98 4.67 1.61 10.9-3.06 13.89-4.67 2.98-10.9 1.61-13.89-3.06l-.9-1.41c-.5-.78-1.53-1.01-2.31-.51l-2.83 1.8c-1.58 1.01-3.36 1.39-5.1 1.27l20.45-13.06h-6.23l-18.3 11.69c-.93-.62-1.76-1.44-2.4-2.44l-2.71-4.24 7.84-5h-6.23l-4.83 3.08c-.78.5-1.01 1.53-.51 2.31l3.61 5.65c3.48 5.45 10.75 7.06 16.2 3.57l1.41-.9c3.67 5.75 11.03 7.74 17.04 4.89l11.79 18.46c.99 1.56.54 3.63-1.02 4.63l-4.24 2.71c-.78.5-1.01 1.53-.51 2.31s1.53 1.01 2.31.51l4.24-2.71 12.71-8.12c.78-.5 1.01-1.53.51-2.31-.48-.8-1.51-1.02-2.29-.53z"/>
    <circle cx="970.26" cy="63.7" r="1.68"/>
    <circle cx="975.52" cy="56.36" r="1.68"/>
    <circle cx="977.71" cy="62.91" r="1.68"/>
  </g>
  <g fill="#F7F7F7">
    <path d="M912.89 53.07c-.47 3.02-.7 6.09-.65 9.2.12 7.3-1.3 14.39-4.22 21.08l-6 13.77c-.42.96-1.53 1.39-2.48.98l-2.75-1.2c-1.12-.49-1.98-1.38-2.42-2.51-.81-2.07-2.39-3.7-4.43-4.59l-5.49-2.39c-2.04-.89-4.31-.93-6.38-.11-1.13.45-2.37.42-3.49-.06l-2.74-1.2c-.95-.42-1.39-1.53-.98-2.48l6-13.77c2.77-6.36 6.74-11.97 11.79-16.71h-5.32c-4.14 4.47-7.47 9.56-9.93 15.2l-6 13.77c-1.25 2.86.07 6.21 2.93 7.45l2.75 1.2 22.2 9.67 2.74 1.2c2.86 1.25 6.21-.07 7.45-2.93l6-13.77c3.13-7.19 4.65-14.81 4.53-22.64-.05-3.09.19-6.14.69-9.14h-3.8z"/>
    <path d="M901.66 74.32l3.77-8.65-5.42-6.48-8.43.45-3.77 8.65 5.42 6.48 8.43-.45zm-8.81-12.86l6.32-.34 4.06 4.86-2.84 6.51-6.32.34-4.06-4.86 2.84-6.51z"/>
    <path d="M897.98 68.6l.75-1.73c.42-.96-.02-2.07-.98-2.48-.96-.42-2.07.02-2.48.98l-.75 1.73c-.42.96.02 2.07.98 2.48.95.41 2.06-.03 2.48-.98zM900.27 79.89l-15.58-6.78c-.48-.21-1.03.01-1.24.49-.21.48.01 1.03.49 1.24l15.58 6.78c.48.21 1.03-.01 1.24-.49.21-.48-.01-1.03-.49-1.24zM895.3 81.84l-8.65-3.77c-.48-.21-1.03.01-1.24.49-.21.48.01 1.03.49 1.24l8.65 3.77c.48.21 1.03-.01 1.24-.49.21-.47-.01-1.03-.49-1.24z"/>
  </g>
  <g>
    <path d="M441.82 52.93h4.2l-2.57-5.29c-.82-1.68-.27-3.73 1.28-4.78l5.19-3.51 6.6 13.57h4.2l-7.77-15.98c-2.28-4.68-.32-10.34 4.36-12.62 4.68-2.28 10.34-.32 12.62 4.36l11.78 24.24h4.2L473.68 27.8l5.96-1.91c1.78-.57 3.73.27 4.55 1.94l12.2 25.1h4.2l-13-26.75c-1.63-3.36-5.54-5.03-9.1-3.89l-6.82 2.19c-3.78-4.64-10.4-6.28-16.01-3.55-5.62 2.73-8.42 8.94-7.1 14.78l-5.94 4.01c-3.09 2.09-4.19 6.2-2.56 9.56l1.76 3.65z"/>
    <path d="M465.76 52.93h10.31c-.28-.14-.55-.29-.85-.39l-6.53-2.26c-.67-.23-1.22-.71-1.53-1.36s-.36-1.37-.12-2.04l2-5.79c.34-.99-.18-2.06-1.17-2.4-.99-.34-2.06.18-2.4 1.17l-2 5.78c-.56 1.63-.46 3.38.3 4.92.46.97 1.15 1.75 1.99 2.37zM72.6 52.93l-1.94-.75c-.97-.38-1.45-1.47-1.08-2.44.38-.97 1.47-1.45 2.44-1.08l10.56 4.1-.07.18h3.82c.07-1.58-.84-3.09-2.39-3.7l-10.56-4.1-1.76-.68c-.97-.38-1.45-1.47-1.08-2.44.38-.97 1.47-1.45 2.44-1.08l30.91 12h10.44L74.36 37.41l-2.64-1.02c-.49-.19-.73-.74-.54-1.22s.74-.73 1.22-.54l4.4 1.71 42.76 16.59H130L78.17 32.81c-.97-.38-1.45-1.47-1.08-2.44 4.14-10.67 16.2-15.99 26.87-11.85l24.64 9.56c10 3.88 15.3 14.71 12.52 24.84h3.89c2.68-11.68-3.55-23.9-15.04-28.36L105.33 15c-12.62-4.9-26.86 1.38-31.76 14-.25.64-.35 1.3-.36 1.95-2.27-.57-4.68.61-5.55 2.85-.65 1.67-.26 3.47.82 4.75-.62.57-1.13 1.26-1.45 2.09-.73 1.88-.37 3.9.74 5.41-.73.6-1.34 1.37-1.71 2.31-.25.64-.35 1.3-.36 1.95-2.19-.55-4.49.53-5.43 2.62H72.6z"/>
    <circle cx="108.27" cy="28.29" r="1.89"/>
    <circle cx="97.71" cy="24.2" r="1.89"/>
    <circle cx="89.7" cy="29.19" r="1.89"/>
    <circle cx="100.26" cy="33.29" r="1.89"/>
    <circle cx="129.39" cy="36.49" r="1.89"/>
    <circle cx="118.83" cy="32.39" r="1.89"/>
    <circle cx="110.82" cy="37.38" r="1.89"/>
    <circle cx="121.38" cy="41.48" r="1.89"/>
    <circle cx="131.94" cy="45.58" r="1.89"/>
    <path d="M785.71 52.93h4.12l-3.99-9.1 3.46-1.51 4.65 10.62h8.24l-2.19-5 3.46-1.51 2.85 6.51h4.12l-4.27-9.76-1.51-3.46 3.46-1.51.76 1.73 5.69 13h4.12l-5.6-12.79 3.46-1.51.76 1.73 4.97 11.35c-.53.43-1.07.84-1.64 1.22h5.92c2.65-2.67 4.55-5.78 5.1-8.72.25-1.31.99-2.33 2.03-2.78l5.64-2.47c.67 1.68 1.28 3.39 1.8 5.12l2.68 8.85h3.95L844.74 43c-.75-2.47-1.65-4.92-2.69-7.28-.42-.96-1.53-1.39-2.49-.97l-4.54-10.38c-.42-.96-1.53-1.39-2.49-.97l-5.19 2.27-1.51-3.46c-.42-.96-1.53-1.39-2.49-.97l-5.19 2.27-2.27-5.19c-.42-.96-1.53-1.39-2.49-.97l-6.92 3.03c-.95.42-1.39 1.53-.97 2.49l.76 1.73-12.11 5.3c-.95.42-1.39 1.53-.97 2.49l-5.19 2.27c-.96.42-1.39 1.53-.97 2.49l.76 1.73-5.19 2.27c-.96.42-1.39 1.53-.97 2.49l4.09 9.29zm39.43-4.07l-3.63-8.29 3.46-1.51 2.56 5.85c-.49 1.31-1.32 2.66-2.39 3.95zm7.18-21.26l3.79 8.65-3.46 1.51-3.79-8.65 3.46-1.51zm-37.61 8.22l.76 1.73c.42.96 1.53 1.39 2.49.97s1.39-1.53.97-2.49l-1.51-3.46 3.46-1.51.76 1.73c.42.96 1.53 1.39 2.49.97.96-.42 1.39-1.53.97-2.49l-.76-1.73 3.46-1.51 1.51 3.46c.42.96 1.53 1.39 2.49.97.96-.42 1.39-1.53.97-2.49l-2.27-5.19-.76-1.73 3.46-1.51 2.27 5.19 2.27 5.19c.42.96 1.53 1.39 2.49.97s1.39-1.53.97-2.49l-1.51-3.46 3.46-1.51 4.54 10.38c-.42-.96-1.53-1.39-2.49-.97l-5.2 2.27-.76-1.73c-.42-.96-1.53-1.39-2.49-.97l-5.19 2.27-.76-1.73c-.42-.96-1.53-1.39-2.49-.97l-6.92 3.03c-.96.42-1.39 1.53-.97 2.49l1.51 3.46-5.19 2.27c-.95.42-1.39 1.53-.97 2.49l-4.54-10.38 3.48-1.52z"/>
    <g>
      <path d="M600.44 52.93c-1.04-4.68-.73-9.71 1.2-14.49.39-.96 1.49-1.43 2.46-1.04l4.86 1.97 5.64 2.28 27.92 11.28h10.08l-2.84-1.15c1.03-.8 2.43-1.05 3.72-.53.84.34 1.47.94 1.87 1.68h3.99c-.56-2.26-2.13-4.24-4.45-5.18-2.76-1.12-5.79-.45-7.87 1.42-.17-.63-.47-1.22-.87-1.75 2.63-2.12 6.24-2.71 9.45-1.42 3.06 1.24 5.11 3.91 5.71 6.93h3.81c-.63-4.52-3.58-8.6-8.11-10.43-3.95-1.6-8.34-1.16-11.85.99.18-.72.19-1.46.07-2.18 3.88-1.97 8.44-2.2 12.49-.57 5.26 2.13 8.67 6.91 9.32 12.18h3.8c-.67-6.77-4.97-12.96-11.7-15.68-.08-.03-.17-.05-.25-.08.44-3.33-1.37-6.68-4.63-8-2.55-1.03-5.42-.54-7.51 1.13-.16-.09-.33-.18-.5-.26-1.31-4.39-4.51-7.98-8.78-9.7-5.54-2.24-11.75-1-16.05 3.1-2.34.53-4.4 2.14-5.36 4.53-.03.08-.04.17-.07.25-3.34-.45-6.69 1.37-8.01 4.63-.24.6-.37 1.22-.45 1.85l-2.01-.81c-2.9-1.17-6.2.23-7.37 3.13-2.12 5.23-2.54 10.73-1.55 15.9h3.84zm19.19-13.32c2.02-.2 3.84-1.61 4.53-3.63.19-.55.62-.95 1.14-1.08.26-.06.75-.1 1.19.32 1.78 1.73 4.56 1.9 6.6.39.82-.61 1.97-.14 2.14.86.42 2.5 2.53 4.31 5.02 4.31.6 0 .93.37 1.07.6.29.46.32 1.04.07 1.57-.9 1.94-.58 4.22.74 5.76l-22.5-9.1zm10.7-10.7c1.18-.33 2.43-.29 3.59.18 1.45.58 2.54 1.75 3.1 3.19-.05.07-.11.13-.16.2-.32-.22-.65-.43-1.02-.58-1.65-.67-3.52-.42-4.98.66-.18.13-.37.2-.57.24.36-1.3.37-2.63.04-3.89zm22.51 3.75c1.46.59 2.35 2 2.35 3.49-1.56-.26-3.13-.33-4.7-.2-.12-1.07-.48-2.08-1.02-2.99 1-.61 2.25-.75 3.37-.3zm-8.42.68c1.41.57 2.28 1.89 2.33 3.34-1.18.35-2.34.81-3.44 1.39-.87-.67-1.92-1.07-3.06-1.07-.56 0-1.02-.37-1.21-.92.19-.18.36-.4.47-.66.78-1.93 2.98-2.86 4.91-2.08zm-8.38-9.5c2.62 1.06 4.72 3.06 5.93 5.55-.65.09-1.28.24-1.88.49-1.03-1.92-2.7-3.45-4.76-4.29-2.24-.9-4.66-.89-6.88-.04-.5-.52-1.09-.94-1.74-1.31 2.86-1.44 6.24-1.65 9.33-.4zm-16.49 5.55c.78-1.93 2.98-2.87 4.92-2.09.79.32 1.4.88 1.8 1.55.01.01.01.02.01.03 0 .01.01.01.01.02.41.7.59 1.51.49 2.33-.76-.18-1.56-.2-2.35-.01-1.51.36-2.73 1.37-3.46 2.74-1.47-.96-2.11-2.87-1.42-4.57zm-8.08 4.88c.68-1.68 2.43-2.6 4.15-2.3.23 1.47.89 2.84 1.9 3.95-1.13.21-2.16.78-2.94 1.65l-3.34-1.35c-.08-.56-.06-1.23.23-1.95z"/>
      <path d="M618.15 52.93c.2-.89-.26-1.81-1.13-2.16-.97-.39-2.07.08-2.46 1.04-.15.37-.17.76-.09 1.12h3.68z"/>
      <circle cx="607.56" cy="48.98" r="1.89"/>
    </g>
    <g>
      <path d="M712.05 52.93c-.33-.48-.88-.81-1.51-.82-.66-.02-1.25.31-1.6.82h3.11zM720.42 52.93l.16-6.71c.02-1.04-.8-1.91-1.84-1.93-1.04-.02-1.91.8-1.93 1.84l-.16 6.8h3.77zM728 47.73c.35-.33.57-.8.58-1.32l.19-8.01c.02-1.04-.8-1.91-1.84-1.93-1.04-.02-1.91.8-1.93 1.84l-.19 8.01c-.02 1.04.8 1.91 1.84 1.93.52.01 1-.19 1.35-.52zM736.19 39.91c.35-.33.57-.8.58-1.32l.19-8.01c.02-1.04-.8-1.91-1.84-1.93-1.04-.02-1.91.8-1.93 1.84L733 38.5c-.02 1.04.8 1.91 1.84 1.93.53.01 1-.19 1.35-.52z"/>
      <path d="M706.14 52.93l26.34-25.12c4.52-4.31 11.7-4.14 16.01.38.72.75.69 1.95-.06 2.67l-.68.65-22.46 21.43h5.47l19.6-18.69c.38-.36.98-.34 1.33.03.36.38.35.98-.03 1.33l-1.37 1.3-16.8 16.02h5.47l13.93-13.29c1.13-1.08 2.93-1.04 4 .09 1.08 1.13 1.04 2.93-.09 4l-9.64 9.2h5.47l6.78-6.46 1.45-1.38c.33-.32.86-.3 1.18.03.15.15.24.34.23.48-.07 3.6-2.35 6.52-5.64 7.33h6.82c1.39-1.69 2.27-3.79 2.52-6.09.28.1.55.24.77.47 1.5 1.57 2.17 3.61 2.07 5.62h3.78c.11-2.95-.92-5.93-3.11-8.23-1.15-1.2-2.74-1.81-4.34-1.74-.11-.15-.22-.31-.36-.45-.91-.96-2.14-1.42-3.37-1.41-.13-1.44-.7-2.85-1.77-3.97-1.08-1.14-2.48-1.77-3.93-1.96.07-1.25-.35-2.53-1.28-3.51-.5-.53-1.1-.9-1.74-1.14.32-1.73-.15-3.58-1.45-4.95-5.75-6.03-15.33-6.25-21.35-.5l-29.2 27.86h5.45z"/>
    </g>
    <g>
      <circle cx="185.39" cy="43.58" r="1.89"/>
      <path d="M194.8 52.93c.81-2.15 2.87-3.68 5.3-3.68s4.49 1.53 5.3 3.68h3.93c-.91-4.25-4.7-7.46-9.23-7.46-4.52 0-8.31 3.2-9.23 7.46h3.93z"/>
      <path d="M177.44 52.93V36.07c16.06.35 31.25 6.29 43.28 16.86h7.13l5.72-6.17c.7-.75.67-1.92-.07-2.64-15.21-14.73-36.19-23.18-57.55-23.18h-.4c-1.04 0-1.89.84-1.89 1.89v30.11h3.78zm0-28.21c19.25.37 38.06 7.9 52.09 20.84l-5.14 5.54c-12.9-11.83-29.45-18.47-46.95-18.83v-7.55z"/>
    </g>
    <g>
      <path d="M364.55 48.55l8.45-4.47-4.17 8.85H373l2.65-5.62.27 4.89c.01.25.05.49.08.73h3.83c-.07-.31-.12-.62-.14-.94l-.48-8.67 9.74 6.17h.01l5.42 3.43h17.06c-.45-.51-.96-.98-1.57-1.36-2.96-1.88-6.73-1.4-9.18.89l-1.66-1.05c3.04-3.17 8-3.87 11.85-1.43 1.23.78 2.21 1.8 2.94 2.96h4.22c-1-2.45-2.73-4.62-5.14-6.14-5.61-3.56-12.9-2.33-17.1 2.58l-1.61-1.02c4.77-5.78 13.23-7.26 19.72-3.15 2.98 1.89 5.05 4.65 6.14 7.74h3.97c-1.2-4.37-3.97-8.32-8.09-10.93-3-1.9-6.33-2.82-9.64-2.9-.34-.39-.69-.77-1.06-1.13l7.72-15.99c.45-.94.06-2.07-.88-2.52-.94-.45-2.07-.06-2.52.88l-7.34 15.21c-.02-.01-.03-.02-.05-.03-1.98-1.26-4.11-2.09-6.29-2.54l4.03-15.21c.27-1.01-.34-2.04-1.34-2.31-1.01-.27-2.04.33-2.31 1.34l-4.18 15.79c-5.02 0-9.97 1.99-13.61 5.79l-.33-.21c-.57-.36-1.3-.39-1.89-.07l-13.45 7.12c-.92.49-1.27 1.63-.78 2.55.48.91 1.62 1.26 2.54.77zm30.35-11.93c1.81.35 3.59 1.03 5.24 2.08.44.28.86.59 1.27.91-.76.18-1.51.42-2.25.7-.01-.01-.02-.01-.03-.02-1.48-.94-3.08-1.54-4.72-1.84l.49-1.83zm-1.46 5.53c.52.08 1.02.2 1.53.36-.73.51-1.42 1.1-2.08 1.72l.55-2.08zm-4.64 2.77l-1.99-1.26c.83-.56 1.72-.99 2.66-1.26l-.67 2.52zm2.25-8.53l-.51 1.94c-2.59.3-5.09 1.38-7.14 3.17l-1.66-1.05c2.59-2.44 5.9-3.84 9.31-4.06z"/>
    </g>
    <g>
      <path d="M295.62 52.93h3.87c-.31-1.41-.53-2.84-.64-4.29l15.04-5.8c1.3 1.68 2.41 3.48 3.36 5.38-3.19.16-6.32 1.73-8.3 4.23-1.81-.3-3.68-.11-5.42.48h19.34c-.13-1.05-.38-2.1-.77-3.13-1.42-3.69-3.42-7.12-5.94-10.18l-.2-.24c-.52-.62-1.38-.85-2.13-.56l-17.61 6.79c-.76.29-1.24 1.03-1.21 1.84l.01.31c.07 1.74.28 3.47.6 5.17zM257.43 34.25l5.19 13.47c.28.72.09 1.53-.48 2.06-1.01.93-1.84 2-2.49 3.14h4.71c.12-.12.22-.26.35-.38 1.71-1.58 2.27-4.01 1.43-6.19l-4.51-11.71 7.05-2.72 4.51 11.71c.84 2.17 2.88 3.6 5.21 3.63 3.72.05 6.99 2.26 8.45 5.65h4.08l-.39-1.02c-1.94-5.04-6.69-8.34-12.08-8.4-.78-.01-1.46-.48-1.74-1.21l-5.19-13.47-2.72-7.05c-.38-.97-1.47-1.46-2.44-1.08l-10.57 4.07c-.97.38-1.46 1.47-1.08 2.44l2.71 7.06zm8.53-9.35l1.36 3.52-7.05 2.72-1.36-3.52 7.05-2.72z"/>
    </g>
    <path d="M517.98 42.13c.89 4.06 3.54 7.47 7.27 9.35l2.87 1.44h8.4l-9.57-4.82c-.1-.05-.18-.11-.28-.16L562.88 40l-.7 1.21c-1.21-.38-2.53-.49-3.86-.2-4.06.89-6.64 4.92-5.75 8.99.24 1.1.72 2.09 1.36 2.93h16.76l11.02-13.84c2.59-3.26 3.56-7.46 2.66-11.53l-.81-3.69c-.22-1.02-1.23-1.66-2.25-1.44l-4.42.97 2.99-5.15c.52-.9.22-2.06-.69-2.58-.9-.52-2.06-.21-2.58.69l-4.73 8.14-53.27 11.69c-1.02.22-1.66 1.23-1.44 2.25l.81 3.69zm42.76 9.93c-2.03.45-4.04-.84-4.49-2.87s.84-4.04 2.87-4.49c.72-.16 1.44-.09 2.09.15.16.26.36.5.64.67.24.14.49.2.75.23.48.49.84 1.11 1 1.82.46 2.03-.83 4.04-2.86 4.49zm18-15.32l-12.37 15.54c.97-1.6 1.36-3.55.93-5.52-.31-1.39-1-2.59-1.92-3.55l2.5-4.3 11.04-2.42c-.06.07-.11.16-.18.25zm-4.43-8.91l5.96-1.31.4 1.84c.28 1.29.29 2.59.08 3.85l-10.3 2.26 3.86-6.64zm-5 1.1l-3.86 6.64-42.24 9.27c-.73-1.05-1.27-2.24-1.55-3.53l-.4-1.84 48.05-10.54z"/>
    <g>
      <path d="M946.65 52.93h6.23l20.28-12.95c2.14 2.58 5.11 4.18 8.26 4.67l-12.97 8.28h6.23l13.13-8.38c-.62 1.63-1.72 3.08-3.29 4.09l-2.82 1.8c-.78.5-1.01 1.53-.51 2.31l.11.17h3.94c-.11-.19-.21-.38-.32-.56l1.41-.9c3.38-2.16 5.27-5.76 5.4-9.49 5.38-4.2 6.78-11.9 3.04-17.77-3.98-6.23-12.28-8.06-18.52-4.08-5.75 3.67-7.74 11.03-4.89 17.04l-24.71 15.77zm29.36-14.77l8.35-5.33 2.71 4.24c.63.99 1.03 2.07 1.2 3.17-4.11 2.23-9.19 1.32-12.26-2.08zm2.03-15.22c4.67-2.98 10.9-1.61 13.89 3.06 2.43 3.8 1.97 8.63-.8 11.91-.3-.91-.7-1.8-1.24-2.65l-3.61-5.65c-.5-.78-1.53-1.01-2.31-.51l-9.76 6.23c-1.89-4.43-.36-9.72 3.83-12.39z"/>
    </g>
    <g>
      <path d="M888.82 52.93c.21-.19.4-.39.61-.58 2.46-2.22 4.68-4.63 6.67-7.21l16.88 7.35-.06.45h3.82c.68-4.03 1.84-7.98 3.5-11.79l2.05-4.71 5.58-4.67c.59-.49 1.06-1.12 1.36-1.82 1.09-2.5-.06-5.42-2.56-6.5l-18.63-8.11c-2.5-1.09-5.42.06-6.5 2.56-.3.7-.44 1.47-.4 2.23l.39 7.27-2.05 4.71c-2.91 6.69-7.14 12.56-12.56 17.44-1.2 1.08-2.33 2.22-3.42 3.39h5.32zm16.17-33.54c.26-.59.95-.86 1.54-.6l18.63 8.11c.59.26.86.95.6 1.54-.07.16-.18.31-.32.43l-5.03 4.2-15.17-6.61-.35-6.55c0-.17.03-.36.1-.52zm-2.07 14.21l1.48-3.39 13.85 6.03-1.48 3.39c-1.29 2.95-2.28 5.98-3.03 9.06l-15.4-6.7c1.76-2.64 3.3-5.44 4.58-8.39z"/>
    </g>
  </g>
</svg>