<?xml version="1.0" encoding="utf-8"?>
<!-- Generator: Adobe Illustrator 23.0.3, SVG Export Plug-In . SVG Version: 6.00 Build 0)  -->
<svg version="1.0" xmlns="http://www.w3.org/2000/svg" xmlns:xlink="http://www.w3.org/1999/xlink" x="0px" y="0px"
	 viewBox="0 0 1085 109.87" enable-background="new 0 0 1085 109.87" xml:space="preserve">
<g id="Layer_3">
	<g>
		<g>
			<path fill="#F7F7F7" d="M500.66,53.07h-4.2l8.19,16.85c0.82,1.68,0.27,3.73-1.28,4.78l-5.2,3.51c-0.04-0.08-0.07-0.16-0.1-0.25
				l-12.1-24.9h-4.2l12.91,26.55c2.28,4.68,0.32,10.34-4.36,12.62c-4.68,2.28-10.34,0.32-12.62-4.36l-16.92-34.8h-4.2l17.72,36.45
				c0.04,0.08,0.09,0.15,0.13,0.23l-5.97,1.92c-1.78,0.57-3.73-0.27-4.55-1.95l-17.82-36.66h-4.2l18.62,38.31
				c1.63,3.36,5.54,5.03,9.1,3.89l7.14-2.29c3.87,3.95,9.98,5.2,15.22,2.65c5.24-2.55,8.03-8.12,7.31-13.61l6.21-4.2
				c3.09-2.09,4.19-6.2,2.56-9.56L500.66,53.07z"/>
			<path fill="#F7F7F7" d="M484.38,72.65l-5.79-2c-0.67-0.23-1.22-0.71-1.53-1.36s-0.36-1.37-0.12-2.04l2.26-6.52
				c0.56-1.63,0.46-3.38-0.3-4.92c-0.56-1.16-1.44-2.1-2.52-2.73h-10.42c0.46,0.31,0.95,0.59,1.49,0.77l6.53,2.26
				c0.67,0.23,1.22,0.71,1.53,1.36c0.31,0.64,0.36,1.37,0.12,2.04l-2.26,6.52c-0.56,1.63-0.46,3.38,0.3,4.92
				c0.75,1.55,2.06,2.71,3.69,3.27l5.79,2c0.49,0.17,1.01,0.13,1.44-0.09c0.43-0.21,0.79-0.59,0.96-1.08
				C485.88,74.07,485.36,72.99,484.38,72.65z"/>
		</g>
	</g>
	<g>
		<g>
			<path fill="#F7F7F7" d="M142.93,58c0.43-0.49,0.8-1.04,1.05-1.68c0.42-1.07,0.75-2.16,1-3.25h-3.9
				c-0.18,0.63-0.38,1.26-0.62,1.88c-0.38,0.97-1.47,1.45-2.44,1.08l-7.62-2.96h-10.44l16.69,6.48l4.4,1.71
				c0.49,0.19,0.73,0.74,0.54,1.22s-0.74,0.73-1.22,0.54L137.72,62l-22.99-8.92h-10.44l32.06,12.44c0.97,0.38,1.45,1.47,1.08,2.44
				c-0.38,0.97-1.47,1.45-2.44,1.08l-1.76-0.68l-7.04-2.73l-7.04-2.73l-15.84-6.15l-2.81-1.09c-1.99-0.77-4.21-0.85-6.25-0.21
				l-8.07,2.54c-0.67,0.21-1.37-0.54-1.12-1.19l1.04-2.67c0.13-0.34,0.19-0.69,0.22-1.04h-3.87l-0.91,2.35
				c-0.11,0.29-0.19,0.58-0.24,0.88l-8.32-3.23H60.19c-0.01,0.03-0.03,0.05-0.04,0.08c-0.49,1.26-0.39,2.6,0.15,3.73
				c-1.27,0.73-2.32,1.85-2.88,3.31c-1.02,2.63-0.22,5.52,1.77,7.3c-0.56,0.55-1.02,1.21-1.32,1.99c-2.26,5.82,0.64,12.4,6.46,14.66
				l49.28,19.12c5.82,2.26,12.4-0.64,14.66-6.46c0.3-0.78,0.41-1.58,0.36-2.36c2.67,0.03,5.21-1.56,6.23-4.2
				c0.57-1.46,0.55-3,0.1-4.39c1.16-0.47,2.14-1.39,2.63-2.65c0.87-2.24-0.11-4.73-2.17-5.84c0.43-0.49,0.8-1.04,1.05-1.68
				c0.37-0.95,0.44-1.92,0.3-2.86c1.84-0.36,3.47-1.62,4.19-3.49c0.32-0.83,0.41-1.69,0.34-2.52c1.66-0.21,3.16-1.28,3.81-2.95
				C145.97,61.61,144.99,59.12,142.93,58z M122.38,70.22c0.38-0.97,1.47-1.45,2.44-1.08l7.04,2.73c0.97,0.38,1.45,1.47,1.08,2.44
				c-0.38,0.97-1.47,1.45-2.44,1.08l-7.04-2.73C122.49,72.28,122,71.19,122.38,70.22z M99.5,61.34c0.38-0.97,1.47-1.45,2.44-1.08
				l15.84,6.15c0.97,0.38,1.45,1.47,1.08,2.44s-1.47,1.45-2.44,1.08l-15.84-6.15C99.61,63.41,99.12,62.31,99.5,61.34z M95.39,59.05
				c0.22-0.07,0.44-0.11,0.66-0.15c0.08,0.35,0.07,0.72-0.07,1.07c-0.38,0.97-1.47,1.45-2.44,1.08l-2.02-0.78L95.39,59.05z
				 M124.74,95.43c-1.51,3.88-5.89,5.81-9.77,4.31L65.69,80.62c-3.88-1.51-5.81-5.89-4.31-9.77c0.38-0.97,1.47-1.45,2.44-1.08
				l59.84,23.22C124.64,93.37,125.12,94.46,124.74,95.43z M131.34,88.88c-0.56,1.46-2.21,2.18-3.66,1.62l-2.64-1.02L65.19,66.25
				l-2.64-1.02c-1.46-0.56-2.18-2.21-1.62-3.66c0.56-1.46,2.21-2.18,3.66-1.62l65.12,25.27C131.18,85.78,131.9,87.42,131.34,88.88z
				 M134.07,81.84c-0.19,0.49-0.74,0.73-1.22,0.54l-1.76-0.68L65.97,56.43l-1.76-0.68c-0.49-0.19-0.73-0.74-0.54-1.22
				s0.74-0.73,1.22-0.54l4.4,1.71l14.93,5.79l7.95,3.09l7.04,2.73l15.84,6.15l7.04,2.73l7.04,2.73l4.4,1.71
				C134.02,80.81,134.26,81.36,134.07,81.84z"/>
		</g>
	</g>
	<path fill="#F7F7F7" d="M847.8,53.07h-3.95l10.03,33.09l-1.8,0.79c-0.93,0.41-1.92,0.66-2.93,0.75l-4.42,0.4
		c-3.95,0.36-7.79,1.35-11.41,2.94c-3.63,1.59-6.96,3.74-9.9,6.4l-3.29,2.97c-0.75,0.68-1.61,1.23-2.54,1.64l-1.8,0.79L793.5,64.93
		c-0.91-1.56-1.77-3.16-2.54-4.8l5.64-2.47c1.04-0.46,2.29-0.31,3.42,0.39c4.59,2.86,12.54,2.92,18.9,0.13c0,0,0,0,0.01,0
		c0,0,0,0,0.01,0c2.78-1.22,5.36-3.02,7.48-5.11h-6.02c-0.42,0.28-0.85,0.56-1.29,0.8l-0.35-0.8h-4.12l1.01,2.32
		c-1.22,0.4-2.48,0.68-3.75,0.86l-1.39-3.17h-4.12l1.47,3.35c-1.67-0.09-3.22-0.39-4.53-0.93l-1.06-2.43h-8.24l0.59,1.34l-3.46,1.51
		l-1.25-2.85h-4.12l1.91,4.37c-0.95,0.42-1.39,1.53-0.97,2.49c1.03,2.36,2.22,4.69,3.53,6.91l23.12,39.36
		c0.48,0.82,1.51,1.16,2.39,0.77l3.34-1.46c1.3-0.57,2.5-1.34,3.56-2.3l3.29-2.97c5.28-4.76,12.05-7.73,19.13-8.37l4.42-0.4
		c1.42-0.13,2.8-0.48,4.1-1.05l3.34-1.46c0.88-0.38,1.33-1.36,1.05-2.28L847.8,53.07z"/>
	<g>
		<g>
			<path fill="#F7F7F7" d="M672.02,60.78l-1.84-0.74c0.68-2.31,0.88-4.67,0.68-6.96h-3.8c0.21,1.82,0.09,3.69-0.4,5.54l-1.78-0.72
				c0.4-1.61,0.47-3.24,0.27-4.82h-3.81c0.2,1.1,0.21,2.25,0,3.39l-1.82-0.74c0.12-0.9,0.06-1.79-0.14-2.65h-3.96
				c0.18,0.36,0.3,0.74,0.36,1.14l-2.82-1.14h-10.08l1.47,0.59l22.75,9.2l3.5,1.41c0.96,0.39,1.43,1.49,1.04,2.46
				c-5.07,12.55-19.4,18.63-31.95,13.56l-24.5-9.9c-7.72-3.12-12.99-9.75-14.72-17.32h-3.85c1.68,8.48,7.21,16.04,15.44,20.02
				l-1.45,3.59c-0.39,0.97,0.08,2.07,1.04,2.46l24.5,9.9c0.97,0.39,2.07-0.08,2.46-1.04l1.45-3.59
				c14.03,4.61,29.47-2.38,35.08-16.26C676.32,65.26,674.91,61.95,672.02,60.78z M635.82,84.84l-21-8.49l0.71-1.75l21,8.49
				L635.82,84.84z"/>
			<circle fill="#F7F7F7" cx="633.81" cy="59.59" r="1.89"/>
			<circle fill="#F7F7F7" cx="642.56" cy="63.13" r="1.89"/>
			<circle fill="#F7F7F7" cx="651.32" cy="66.66" r="1.89"/>
			<circle fill="#F7F7F7" cx="660.07" cy="70.2" r="1.89"/>
			<path fill="#F7F7F7" d="M614.52,53.07c0.16,0.52,0.54,0.97,1.09,1.19c0.97,0.39,2.07-0.08,2.46-1.04
				c0.02-0.05,0.03-0.1,0.04-0.15H614.52z"/>
			<circle fill="#F7F7F7" cx="625.06" cy="56.05" r="1.89"/>
		</g>
	</g>
	<g>
		<g>
			<path fill="#F7F7F7" d="M703.41,71.18c0.35-0.33,0.57-0.8,0.58-1.32l0.19-8.01c0.02-1.04-0.8-1.91-1.84-1.93
				c-1.04-0.02-1.91,0.8-1.93,1.84l-0.19,8.01c-0.02,1.04,0.8,1.91,1.84,1.93C702.59,71.71,703.06,71.51,703.41,71.18z"/>
			<path fill="#F7F7F7" d="M708.85,53.07c-0.14,0.26-0.24,0.55-0.25,0.87l-0.19,8.01c-0.02,1.04,0.8,1.91,1.84,1.93
				c0.52,0.01,1-0.19,1.35-0.52c0.35-0.33,0.57-0.8,0.58-1.32l0.19-8.01c0.01-0.35-0.09-0.67-0.24-0.96H708.85z"/>
			<path fill="#F7F7F7" d="M716.64,53.07l-0.03,1.06c-0.02,1.04,0.8,1.91,1.84,1.93c0.52,0.01,1-0.19,1.35-0.52
				c0.35-0.33,0.57-0.8,0.58-1.32l0.03-1.15H716.64z"/>
			<path fill="#F7F7F7" d="M768.79,53.07c-0.13,1.8-0.9,3.56-2.31,4.9l-43.71,41.7c-3.01,2.87-7.8,2.76-10.68-0.25
				c-0.22-0.23-0.35-0.5-0.43-0.79c2.76-0.17,5.29-1.24,7.2-3.06c1.51-1.44,2.58-3.31,3.11-5.41c0.27-1.08,1.18-1.95,2.27-2.17
				c4.24-0.84,7.62-4.06,8.66-8.26c0.27-1.08,1.18-1.95,2.27-2.17c4.24-0.84,7.62-4.06,8.66-8.26c0.27-1.08,1.18-1.95,2.27-2.17
				c4.24-0.84,7.62-4.06,8.66-8.26c0.27-1.08,1.18-1.95,2.27-2.17c2.12-0.42,4.04-1.4,5.55-2.85c0.27-0.26,0.52-0.53,0.76-0.81
				h-7.23c-1.19,0.27-2.27,0.86-3.13,1.68c-0.9,0.86-1.57,1.98-1.88,3.23c-0.7,2.8-2.89,4.9-5.73,5.46c-2.53,0.5-4.57,2.45-5.2,4.96
				c-0.7,2.8-2.89,4.9-5.73,5.46c-2.53,0.5-4.57,2.45-5.2,4.96c-0.7,2.8-2.89,4.9-5.73,5.46c-2.53,0.5-4.57,2.45-5.2,4.96
				c-0.85,3.44-3.98,5.73-7.71,5.63c-0.14,0-0.32-0.1-0.47-0.26c-0.32-0.33-0.3-0.86,0.03-1.18l1.45-1.38l21.86-20.85l6.83-6.52
				l12.19-11.63h-5.47l-9.33,8.9c-1.13,1.08-2.93,1.04-4-0.09c-1.08-1.13-1.04-2.93,0.09-4l5.03-4.8h-5.47l-2.17,2.07l-6.83,6.52
				l-21.86,20.85l-1.37,1.3c-0.38,0.36-0.98,0.34-1.33-0.03s-0.35-0.98,0.03-1.33l30.79-29.37h-5.47L697.2,79.71l-0.68,0.65
				c-0.75,0.72-1.95,0.69-2.67-0.06c-4.31-4.52-4.14-11.7,0.38-16.01l11.75-11.21h-5.47l-8.89,8.48c-6.03,5.75-6.25,15.33-0.5,21.35
				c1.3,1.37,3.13,1.92,4.87,1.68c0.21,0.65,0.55,1.27,1.05,1.79c0.93,0.98,2.19,1.46,3.44,1.45c0.12,1.45,0.69,2.88,1.77,4.02
				c1.07,1.12,2.45,1.76,3.88,1.95c-0.07,1.23,0.34,2.47,1.25,3.43c0.14,0.14,0.29,0.26,0.43,0.38c-0.15,1.6,0.39,3.22,1.54,4.42
				c4.31,4.52,11.49,4.69,16.01,0.38l43.71-41.7c2.18-2.08,3.34-4.84,3.48-7.64H768.79z M708.99,89.34c-1.13,1.08-2.93,1.04-4-0.09
				c-1.08-1.13-1.04-2.93,0.09-4l21.86-20.85c1.13-1.08,2.93-1.04,4,0.09c1.08,1.13,1.04,2.93-0.09,4L708.99,89.34z"/>
		</g>
	</g>
	<g>
		<g>
			<circle fill="#F7F7F7" cx="194.83" cy="68.12" r="1.89"/>
			<circle fill="#F7F7F7" cx="181.22" cy="87" r="1.89"/>
			<circle fill="#F7F7F7" cx="185.39" cy="56.8" r="1.89"/>
			<circle fill="#F7F7F7" cx="204.27" cy="70.01" r="1.89"/>
			<path fill="#F7F7F7" d="M205.45,53.07c0.2,0.58,0.31,1.19,0.31,1.83c0,3.12-2.54,5.66-5.66,5.66s-5.66-2.54-5.66-5.66
				c0-0.64,0.11-1.26,0.31-1.83h-3.9c-0.12,0.59-0.18,1.21-0.18,1.83c0,5.2,4.23,9.44,9.44,9.44c5.2,0,9.44-4.23,9.44-9.44
				c0-0.63-0.06-1.24-0.18-1.83H205.45z"/>
			<path fill="#F7F7F7" d="M220.9,53.07c0.29,0.25,0.58,0.49,0.86,0.75l-6.56,6.49V56.8c0-1.04-0.84-1.89-1.89-1.89
				s-1.89,0.84-1.89,1.89v26.43c0,1.04-0.85,1.89-1.89,1.89c-1.04,0-1.89-0.85-1.89-1.89v-1.04c0-2.68-1.25-4.81-3.35-5.69
				c-1.95-0.82-4.19-0.33-5.82,1.26l-21.03,19.95v-14.7c0.62,0.13,1.25,0.22,1.89,0.22c5.2,0,9.44-4.23,9.44-9.44
				s-4.23-9.44-9.44-9.44c-0.64,0-1.27,0.09-1.89,0.22V53.07h-3.78v49.03c0,0.75,0.45,1.44,1.14,1.73c0.24,0.1,0.49,0.15,0.74,0.15
				c0.47,0,0.94-0.18,1.3-0.52l24.24-22.99c0.55-0.54,1.21-0.72,1.74-0.5c0.65,0.27,1.04,1.1,1.04,2.21v1.04
				c0,3.12,2.54,5.66,5.66,5.66c3.12,0,5.66-2.54,5.66-5.66v-17.6l10.62-10.51c0.01-0.01,0.01-0.02,0.02-0.03
				c0.01-0.01,0.02-0.01,0.03-0.02l1.84-1.99H220.9z M177.44,68.51c0.62-0.23,1.24-0.39,1.89-0.39c3.12,0,5.66,2.54,5.66,5.66
				s-2.54,5.66-5.66,5.66c-0.64,0-1.27-0.16-1.89-0.39V68.51z"/>
		</g>
	</g>
	<g>
		<g>
			<path fill="#F7F7F7" d="M424.05,53.07h-3.96c1.23,3.61,1.09,7.66-0.61,11.29l-1.61-1.02c1.49-3.32,1.5-7.03,0.23-10.27h-4.2
				c1.47,2.45,1.79,5.48,0.75,8.22l-1.66-1.05c0.79-2.48,0.25-5.2-1.42-7.17h-16.96l23.05,14.6l-8.05,3.27
				c-1.69,0.69-3.62,0.51-5.16-0.46l-22.14-14.03c-1.23-0.78-2.09-2-2.45-3.38h-3.85c0.41,2.69,1.95,5.1,4.27,6.57l22.14,14.03
				c2.57,1.63,5.79,1.92,8.6,0.77l4.54-1.84L393.4,99.52c-0.6,0.73-1.66,0.9-2.47,0.39l-29.45-18.66c-0.8-0.51-1.1-1.54-0.7-2.4
				l12.15-25.78h-4.17l-11.39,24.17c-1.22,2.58-0.32,5.67,2.09,7.2l29.45,18.66c2.41,1.53,5.59,1.02,7.4-1.18l23.31-28.3l-0.44,9.55
				c-0.03,0.7,0.32,1.33,0.88,1.68c0.27,0.17,0.58,0.28,0.92,0.29c1.04,0.05,1.92-0.76,1.97-1.8l0.69-15.2
				c0.03-0.68-0.3-1.32-0.88-1.68l-0.08-0.05C424.83,62.16,425.21,57.42,424.05,53.07z M404.09,54.61c1.15-0.6,2.58-0.6,3.76,0.14
				c1.18,0.74,1.78,2.04,1.74,3.33L404.09,54.61z"/>
			<path fill="#F7F7F7" d="M389.34,69.85c-3.52-2.23-8.19-1.18-10.42,2.34s-1.18,8.19,2.34,10.42s8.19,1.18,10.42-2.34
				S392.86,72.08,389.34,69.85z M383.28,79.42c-1.76-1.11-2.28-3.45-1.17-5.21s3.45-2.28,5.21-1.17c1.76,1.11,2.28,3.45,1.17,5.21
				S385.04,80.53,383.28,79.42z"/>
			<path fill="#F7F7F7" d="M399.07,82.72l-3.19-2.02c-0.88-0.56-2.05-0.3-2.6,0.58c-0.56,0.88-0.3,2.05,0.58,2.6l3.19,2.02
				c0.88,0.56,2.05,0.3,2.6-0.58C400.21,84.44,399.95,83.27,399.07,82.72z"/>
			<path fill="#F7F7F7" d="M376.74,68.57l-3.19-2.02c-0.88-0.56-2.05-0.3-2.6,0.58c-0.56,0.88-0.3,2.05,0.58,2.6l3.19,2.02
				c0.88,0.56,2.05,0.3,2.6-0.58C377.89,70.3,377.62,69.13,376.74,68.57z"/>
		</g>
	</g>
	<g>
		<g>
			<path fill="#F7F7F7" d="M264.94,106.22c-0.97,0.38-1.46,1.47-1.08,2.44c0.38,0.97,1.47,1.46,2.44,1.08
				c0.97-0.38,1.46-1.47,1.08-2.44C267,106.33,265.91,105.84,264.94,106.22z"/>
			<path fill="#F7F7F7" d="M333.63,79.74l-7.05,2.72c-1.94,0.75-4.13-0.22-4.88-2.16l-5.49-14.23c4.65-2.61,7.24-7.77,6.66-12.98
				h-19.81c-1.12,0.43-2.18,1.04-3.11,1.8c-0.17-0.6-0.31-1.2-0.44-1.8h-3.87c0.41,2.12,1,4.2,1.78,6.22
				c2.39,6.2,8.97,9.56,15.27,8.12l5.49,14.23c0.75,1.94-0.22,4.13-2.16,4.88l-10.89,4.2c-0.02-0.63-0.12-1.27-0.35-1.89
				l-13.79-35.76h-4.06c0.03,0.06,0.06,0.12,0.09,0.19l2.02,5.23l-3.52,1.36c-0.38-0.97-1.47-1.46-2.44-1.08l-14.09,5.43
				c-0.97,0.38-1.46,1.47-1.08,2.44L264.37,68l-2.02-5.23c-1.3-3.36-0.54-7.08,1.88-9.69h-4.65c-1.84,3.33-2.17,7.35-0.75,11.05
				l14.24,36.94c0.24,0.62,0.59,1.16,1,1.64l-3.85,1.48c-0.97,0.38-1.46,1.47-1.08,2.44s1.47,1.46,2.44,1.08l63.41-24.45
				c0.97-0.38,1.46-1.47,1.08-2.44C335.7,79.85,334.61,79.36,333.63,79.74z M301.38,58.79c1.74-2.12,4.94-3.21,7.56-2.5
				c0.08,0.02,0.58,0.12,0.58,0.13c2.25,0.63,4.69,0.46,6.88-0.38c0.99-0.38,1.92-0.92,2.77-1.56c0.02,3.81-2.25,7.43-6.01,8.88
				C308.6,65.11,303.55,63.05,301.38,58.79z M282.66,62.97l5.43,14.09l-10.57,4.07l-5.43-14.09L282.66,62.97z M300.17,92.64
				l-1.03,0.4c-1.14,0.44-2.37,0.41-3.49-0.09c-2.03-0.9-4.3-0.96-6.38-0.16l-2.06,0.8c-2.08,0.8-3.72,2.36-4.62,4.4
				c-0.49,1.11-1.39,1.97-2.53,2.41l-1.03,0.4c-0.97,0.37-2.07-0.11-2.44-1.08l-10.86-28.18l3.52-1.36l5.43,14.09
				c0.38,0.97,1.47,1.46,2.44,1.08l14.09-5.43c0.97-0.38,1.46-1.47,1.08-2.44l-5.43-14.09l3.52-1.36l10.86,28.18
				C301.62,91.17,301.14,92.26,300.17,92.64z"/>
			<path fill="#F7F7F7" d="M338.92,77.7c-0.97,0.38-1.46,1.47-1.08,2.44c0.38,0.97,1.47,1.46,2.44,1.08s1.46-1.47,1.08-2.44
				C340.98,77.81,339.89,77.32,338.92,77.7z"/>
			<path fill="#F7F7F7" d="M278.05,66.77c-0.97,0.38-1.46,1.47-1.08,2.44c0.38,0.97,1.47,1.46,2.44,1.08
				c0.97-0.38,1.46-1.47,1.08-2.44C280.12,66.88,279.03,66.39,278.05,66.77z"/>
		</g>
	</g>
	<path fill="#F7F7F7" d="M576.4,96.95l-5.53,1.21c-2.03,0.45-4.05-0.85-4.5-2.88l-6.54-29.77c0.89-0.46,1.69-1.09,2.31-1.87
		l8.41-10.56h-16.52c1.74,2.17,4.61,3.31,7.51,2.67c1.43-0.31,2.66-1.03,3.64-1.99l-6,7.54c-0.95,1.21-2.81,1.64-4.22,0.92
		l-18.16-9.14h-8.4l24.85,12.51c0.89,0.46,1.88,0.69,2.88,0.74l6.54,29.78c0.45,2.03-0.84,4.05-2.88,4.5l-5.53,1.21
		c-1.02,0.22-1.66,1.23-1.44,2.25c0.22,1.02,1.23,1.66,2.25,1.44l5.53-1.21l11.06-2.43l5.53-1.21c1.02-0.22,1.66-1.23,1.44-2.25
		C578.43,97.37,577.42,96.72,576.4,96.95z"/>
	<g>
		<g>
			<path fill="#F7F7F7" d="M1002.82,86.65l-4.24,2.71c-1.56,0.99-3.63,0.54-4.63-1.02l-11.79-18.46c4.91-4.08,6.28-11.16,3.14-16.8
				h-3.93l0.7,1.09c2.98,4.67,1.61,10.9-3.06,13.89c-4.67,2.98-10.9,1.61-13.89-3.06l-0.9-1.41c-0.5-0.78-1.53-1.01-2.31-0.51
				l-2.83,1.8c-1.58,1.01-3.36,1.39-5.1,1.27l20.45-13.06h-6.23l-18.3,11.69c-0.93-0.62-1.76-1.44-2.4-2.44l-2.71-4.24l7.84-5h-6.23
				l-4.83,3.08c-0.78,0.5-1.01,1.53-0.51,2.31l3.61,5.65c3.48,5.45,10.75,7.06,16.2,3.57l1.41-0.9c3.67,5.75,11.03,7.74,17.04,4.89
				l11.79,18.46c0.99,1.56,0.54,3.63-1.02,4.63l-4.24,2.71c-0.78,0.5-1.01,1.53-0.51,2.31s1.53,1.01,2.31,0.51l4.24-2.71l12.71-8.12
				c0.78-0.5,1.01-1.53,0.51-2.31C1004.63,86.38,1003.6,86.16,1002.82,86.65z"/>
			<circle fill="#F7F7F7" cx="970.26" cy="63.7" r="1.68"/>
			<circle fill="#F7F7F7" cx="975.52" cy="56.36" r="1.68"/>
			<circle fill="#F7F7F7" cx="977.71" cy="62.91" r="1.68"/>
		</g>
	</g>
	<g>
		<g>
			<path fill="#F7F7F7" d="M912.89,53.07c-0.47,3.02-0.7,6.09-0.65,9.2c0.12,7.3-1.3,14.39-4.22,21.08l-6,13.77
				c-0.42,0.96-1.53,1.39-2.48,0.98l-2.75-1.2c-1.12-0.49-1.98-1.38-2.42-2.51c-0.81-2.07-2.39-3.7-4.43-4.59l-5.49-2.39
				c-2.04-0.89-4.31-0.93-6.38-0.11c-1.13,0.45-2.37,0.42-3.49-0.06l-2.74-1.2c-0.95-0.42-1.39-1.53-0.98-2.48l6-13.77
				c2.77-6.36,6.74-11.97,11.79-16.71h-5.32c-4.14,4.47-7.47,9.56-9.93,15.2l-6,13.77c-1.25,2.86,0.07,6.21,2.93,7.45l2.75,1.2
				l22.2,9.67l2.74,1.2c2.86,1.25,6.21-0.07,7.45-2.93l6-13.77c3.13-7.19,4.65-14.81,4.53-22.64c-0.05-3.09,0.19-6.14,0.69-9.14
				H912.89z"/>
			<path fill="#F7F7F7" d="M901.66,74.32l3.77-8.65l-5.42-6.48l-8.43,0.45l-3.77,8.65l5.42,6.48L901.66,74.32z M892.85,61.46
				l6.32-0.34l4.06,4.86l-2.84,6.51l-6.32,0.34l-4.06-4.86L892.85,61.46z"/>
			<path fill="#F7F7F7" d="M897.98,68.6l0.75-1.73c0.42-0.96-0.02-2.07-0.98-2.48c-0.96-0.42-2.07,0.02-2.48,0.98l-0.75,1.73
				c-0.42,0.96,0.02,2.07,0.98,2.48C896.45,69.99,897.56,69.55,897.98,68.6z"/>
			<path fill="#F7F7F7" d="M900.27,79.89l-15.58-6.78c-0.48-0.21-1.03,0.01-1.24,0.49c-0.21,0.48,0.01,1.03,0.49,1.24l15.58,6.78
				c0.48,0.21,1.03-0.01,1.24-0.49C900.97,80.65,900.75,80.1,900.27,79.89z"/>
			<path fill="#F7F7F7" d="M895.3,81.84l-8.65-3.77c-0.48-0.21-1.03,0.01-1.24,0.49c-0.21,0.48,0.01,1.03,0.49,1.24l8.65,3.77
				c0.48,0.21,1.03-0.01,1.24-0.49C896,82.61,895.78,82.05,895.3,81.84z"/>
		</g>
	</g>
</g>
<g id="Layer_2">
</g>
<g id="Layer_1">
	<g>
		<path d="M441.82,52.93h4.2l-2.57-5.29c-0.82-1.68-0.27-3.73,1.28-4.78l5.19-3.51l6.6,13.57h4.2l-7.77-15.98
			c-2.28-4.68-0.32-10.34,4.36-12.62c4.68-2.28,10.34-0.32,12.62,4.36l11.78,24.24h4.2L473.68,27.8l5.96-1.91
			c1.78-0.57,3.73,0.27,4.55,1.94l12.2,25.1h4.2l-13-26.75c-1.63-3.36-5.54-5.03-9.1-3.89l-6.82,2.19
			c-3.78-4.64-10.4-6.28-16.01-3.55c-5.62,2.73-8.42,8.94-7.1,14.78l-5.94,4.01c-3.09,2.09-4.19,6.2-2.56,9.56L441.82,52.93z"/>
		<path d="M465.76,52.93h10.31c-0.28-0.14-0.55-0.29-0.85-0.39l-6.53-2.26c-0.67-0.23-1.22-0.71-1.53-1.36s-0.36-1.37-0.12-2.04
			l2-5.79c0.34-0.99-0.18-2.06-1.17-2.4c-0.99-0.34-2.06,0.18-2.4,1.17l-2,5.78c-0.56,1.63-0.46,3.38,0.3,4.92
			C464.23,51.53,464.92,52.31,465.76,52.93z"/>
	</g>
	<g>
		<path d="M72.6,52.93l-1.94-0.75c-0.97-0.38-1.45-1.47-1.08-2.44c0.38-0.97,1.47-1.45,2.44-1.08l10.56,4.1l-0.07,0.18h3.82
			c0.07-1.58-0.84-3.09-2.39-3.7l-10.56-4.1l-1.76-0.68c-0.97-0.38-1.45-1.47-1.08-2.44c0.38-0.97,1.47-1.45,2.44-1.08l30.91,12
			h10.44L74.36,37.41l-2.64-1.02c-0.49-0.19-0.73-0.74-0.54-1.22s0.74-0.73,1.22-0.54l4.4,1.71l42.76,16.59H130L78.17,32.81
			c-0.97-0.38-1.45-1.47-1.08-2.44c4.14-10.67,16.2-15.99,26.87-11.85l24.64,9.56c10,3.88,15.3,14.71,12.52,24.84h3.89
			c2.68-11.68-3.55-23.9-15.04-28.36L105.33,15c-12.62-4.9-26.86,1.38-31.76,14c-0.25,0.64-0.35,1.3-0.36,1.95
			c-2.27-0.57-4.68,0.61-5.55,2.85c-0.65,1.67-0.26,3.47,0.82,4.75c-0.62,0.57-1.13,1.26-1.45,2.09c-0.73,1.88-0.37,3.9,0.74,5.41
			c-0.73,0.6-1.34,1.37-1.71,2.31c-0.25,0.64-0.35,1.3-0.36,1.95c-2.19-0.55-4.49,0.53-5.43,2.62H72.6z"/>
		<circle cx="108.27" cy="28.29" r="1.89"/>
		<circle cx="97.71" cy="24.2" r="1.89"/>
		<circle cx="89.7" cy="29.19" r="1.89"/>
		<circle cx="100.26" cy="33.29" r="1.89"/>
		<circle cx="129.39" cy="36.49" r="1.89"/>
		<circle cx="118.83" cy="32.39" r="1.89"/>
		<circle cx="110.82" cy="37.38" r="1.89"/>
		<circle cx="121.38" cy="41.48" r="1.89"/>
		<circle cx="131.94" cy="45.58" r="1.89"/>
	</g>
	<path d="M785.71,52.93h4.12l-3.99-9.1l3.46-1.51l4.65,10.62h8.24l-2.19-5l3.46-1.51l2.85,6.51h4.12l-4.27-9.76l-1.51-3.46
		l3.46-1.51l0.76,1.73l5.69,13h4.12l-5.6-12.79l3.46-1.51l0.76,1.73l4.97,11.35c-0.53,0.43-1.07,0.84-1.64,1.22h5.92
		c2.65-2.67,4.55-5.78,5.1-8.72c0.25-1.31,0.99-2.33,2.03-2.78l5.64-2.47c0.67,1.68,1.28,3.39,1.8,5.12l2.68,8.85h3.95l-3.01-9.94
		c-0.75-2.47-1.65-4.92-2.69-7.28c-0.42-0.96-1.53-1.39-2.49-0.97l-4.54-10.38c-0.42-0.96-1.53-1.39-2.49-0.97l-5.19,2.27
		l-1.51-3.46c-0.42-0.96-1.53-1.39-2.49-0.97l-5.19,2.27l-2.27-5.19c-0.42-0.96-1.53-1.39-2.49-0.97l-6.92,3.03
		c-0.95,0.42-1.39,1.53-0.97,2.49l0.76,1.73l-12.11,5.3c-0.95,0.42-1.39,1.53-0.97,2.49l-5.19,2.27c-0.96,0.42-1.39,1.53-0.97,2.49
		l0.76,1.73l-5.19,2.27c-0.96,0.42-1.39,1.53-0.97,2.49L785.71,52.93z M825.14,48.86l-3.63-8.29l3.46-1.51l2.56,5.85
		C827.04,46.22,826.21,47.57,825.14,48.86z M832.32,27.6l3.79,8.65l-3.46,1.51l-3.79-8.65L832.32,27.6z M794.71,35.82l0.76,1.73
		c0.42,0.96,1.53,1.39,2.49,0.97s1.39-1.53,0.97-2.49l-1.51-3.46l3.46-1.51l0.76,1.73c0.42,0.96,1.53,1.39,2.49,0.97
		c0.96-0.42,1.39-1.53,0.97-2.49l-0.76-1.73l3.46-1.51l1.51,3.46c0.42,0.96,1.53,1.39,2.49,0.97c0.96-0.42,1.39-1.53,0.97-2.49
		l-2.27-5.19l-0.76-1.73l3.46-1.51l2.27,5.19l2.27,5.19c0.42,0.96,1.53,1.39,2.49,0.97s1.39-1.53,0.97-2.49l-1.51-3.46l3.46-1.51
		l4.54,10.38c-0.42-0.96-1.53-1.39-2.49-0.97L820,37.11l-0.76-1.73c-0.42-0.96-1.53-1.39-2.49-0.97l-5.19,2.27l-0.76-1.73
		c-0.42-0.96-1.53-1.39-2.49-0.97l-6.92,3.03c-0.96,0.42-1.39,1.53-0.97,2.49l1.51,3.46l-5.19,2.27c-0.95,0.42-1.39,1.53-0.97,2.49
		l-4.54-10.38L794.71,35.82z"/>
	<g>
		<path d="M600.44,52.93c-1.04-4.68-0.73-9.71,1.2-14.49c0.39-0.96,1.49-1.43,2.46-1.04l4.86,1.97l5.64,2.28l27.92,11.28h10.08
			l-2.84-1.15c1.03-0.8,2.43-1.05,3.72-0.53c0.84,0.34,1.47,0.94,1.87,1.68h3.99c-0.56-2.26-2.13-4.24-4.45-5.18
			c-2.76-1.12-5.79-0.45-7.87,1.42c-0.17-0.63-0.47-1.22-0.87-1.75c2.63-2.12,6.24-2.71,9.45-1.42c3.06,1.24,5.11,3.91,5.71,6.93
			h3.81c-0.63-4.52-3.58-8.6-8.11-10.43c-3.95-1.6-8.34-1.16-11.85,0.99c0.18-0.72,0.19-1.46,0.07-2.18
			c3.88-1.97,8.44-2.2,12.49-0.57c5.26,2.13,8.67,6.91,9.32,12.18h3.8c-0.67-6.77-4.97-12.96-11.7-15.68
			c-0.08-0.03-0.17-0.05-0.25-0.08c0.44-3.33-1.37-6.68-4.63-8c-2.55-1.03-5.42-0.54-7.51,1.13c-0.16-0.09-0.33-0.18-0.5-0.26
			c-1.31-4.39-4.51-7.98-8.78-9.7c-5.54-2.24-11.75-1-16.05,3.1c-2.34,0.53-4.4,2.14-5.36,4.53c-0.03,0.08-0.04,0.17-0.07,0.25
			c-3.34-0.45-6.69,1.37-8.01,4.63c-0.24,0.6-0.37,1.22-0.45,1.85l-2.01-0.81c-2.9-1.17-6.2,0.23-7.37,3.13
			c-2.12,5.23-2.54,10.73-1.55,15.9H600.44z M619.63,39.61c2.02-0.2,3.84-1.61,4.53-3.63c0.19-0.55,0.62-0.95,1.14-1.08
			c0.26-0.06,0.75-0.1,1.19,0.32c1.78,1.73,4.56,1.9,6.6,0.39c0.82-0.61,1.97-0.14,2.14,0.86c0.42,2.5,2.53,4.31,5.02,4.31
			c0.6,0,0.93,0.37,1.07,0.6c0.29,0.46,0.32,1.04,0.07,1.57c-0.9,1.94-0.58,4.22,0.74,5.76L619.63,39.61z M630.33,28.91
			c1.18-0.33,2.43-0.29,3.59,0.18c1.45,0.58,2.54,1.75,3.1,3.19c-0.05,0.07-0.11,0.13-0.16,0.2c-0.32-0.22-0.65-0.43-1.02-0.58
			c-1.65-0.67-3.52-0.42-4.98,0.66c-0.18,0.13-0.37,0.2-0.57,0.24C630.65,31.5,630.66,30.17,630.33,28.91z M652.84,32.66
			c1.46,0.59,2.35,2,2.35,3.49c-1.56-0.26-3.13-0.33-4.7-0.2c-0.12-1.07-0.48-2.08-1.02-2.99
			C650.47,32.35,651.72,32.21,652.84,32.66z M644.42,33.34c1.41,0.57,2.28,1.89,2.33,3.34c-1.18,0.35-2.34,0.81-3.44,1.39
			c-0.87-0.67-1.92-1.07-3.06-1.07c-0.56,0-1.02-0.37-1.21-0.92c0.19-0.18,0.36-0.4,0.47-0.66
			C640.29,33.49,642.49,32.56,644.42,33.34z M636.04,23.84c2.62,1.06,4.72,3.06,5.93,5.55c-0.65,0.09-1.28,0.24-1.88,0.49
			c-1.03-1.92-2.7-3.45-4.76-4.29c-2.24-0.9-4.66-0.89-6.88-0.04c-0.5-0.52-1.09-0.94-1.74-1.31
			C629.57,22.8,632.95,22.59,636.04,23.84z M619.55,29.39c0.78-1.93,2.98-2.87,4.92-2.09c0.79,0.32,1.4,0.88,1.8,1.55
			c0.01,0.01,0.01,0.02,0.01,0.03c0,0.01,0.01,0.01,0.01,0.02c0.41,0.7,0.59,1.51,0.49,2.33c-0.76-0.18-1.56-0.2-2.35-0.01
			c-1.51,0.36-2.73,1.37-3.46,2.74C619.5,33,618.86,31.09,619.55,29.39z M611.47,34.27c0.68-1.68,2.43-2.6,4.15-2.3
			c0.23,1.47,0.89,2.84,1.9,3.95c-1.13,0.21-2.16,0.78-2.94,1.65l-3.34-1.35C611.16,35.66,611.18,34.99,611.47,34.27z"/>
		<path d="M618.15,52.93c0.2-0.89-0.26-1.81-1.13-2.16c-0.97-0.39-2.07,0.08-2.46,1.04c-0.15,0.37-0.17,0.76-0.09,1.12H618.15z"/>
		<circle cx="607.56" cy="48.98" r="1.89"/>
	</g>
	<g>
		<path d="M712.05,52.93c-0.33-0.48-0.88-0.81-1.51-0.82c-0.66-0.02-1.25,0.31-1.6,0.82H712.05z"/>
		<path d="M720.42,52.93l0.16-6.71c0.02-1.04-0.8-1.91-1.84-1.93c-1.04-0.02-1.91,0.8-1.93,1.84l-0.16,6.8H720.42z"/>
		<path d="M728,47.73c0.35-0.33,0.57-0.8,0.58-1.32l0.19-8.01c0.02-1.04-0.8-1.91-1.84-1.93c-1.04-0.02-1.91,0.8-1.93,1.84
			l-0.19,8.01c-0.02,1.04,0.8,1.91,1.84,1.93C727.17,48.26,727.65,48.06,728,47.73z"/>
		<path d="M736.19,39.91c0.35-0.33,0.57-0.8,0.58-1.32l0.19-8.01c0.02-1.04-0.8-1.91-1.84-1.93c-1.04-0.02-1.91,0.8-1.93,1.84
			L733,38.5c-0.02,1.04,0.8,1.91,1.84,1.93C735.37,40.44,735.84,40.24,736.19,39.91z"/>
		<path d="M706.14,52.93l26.34-25.12c4.52-4.31,11.7-4.14,16.01,0.38c0.72,0.75,0.69,1.95-0.06,2.67l-0.68,0.65l-22.46,21.43h5.47
			l19.6-18.69c0.38-0.36,0.98-0.34,1.33,0.03c0.36,0.38,0.35,0.98-0.03,1.33l-1.37,1.3l-16.8,16.02h5.47l13.93-13.29
			c1.13-1.08,2.93-1.04,4,0.09c1.08,1.13,1.04,2.93-0.09,4l-9.64,9.2h5.47l6.78-6.46l1.45-1.38c0.33-0.32,0.86-0.3,1.18,0.03
			c0.15,0.15,0.24,0.34,0.23,0.48c-0.07,3.6-2.35,6.52-5.64,7.33h6.82c1.39-1.69,2.27-3.79,2.52-6.09c0.28,0.1,0.55,0.24,0.77,0.47
			c1.5,1.57,2.17,3.61,2.07,5.62h3.78c0.11-2.95-0.92-5.93-3.11-8.23c-1.15-1.2-2.74-1.81-4.34-1.74c-0.11-0.15-0.22-0.31-0.36-0.45
			c-0.91-0.96-2.14-1.42-3.37-1.41c-0.13-1.44-0.7-2.85-1.77-3.97c-1.08-1.14-2.48-1.77-3.93-1.96c0.07-1.25-0.35-2.53-1.28-3.51
			c-0.5-0.53-1.1-0.9-1.74-1.14c0.32-1.73-0.15-3.58-1.45-4.95c-5.75-6.03-15.33-6.25-21.35-0.5l-29.2,27.86H706.14z"/>
	</g>
	<g>
		<circle cx="185.39" cy="43.58" r="1.89"/>
		<path d="M194.8,52.93c0.81-2.15,2.87-3.68,5.3-3.68s4.49,1.53,5.3,3.68h3.93c-0.91-4.25-4.7-7.46-9.23-7.46
			c-4.52,0-8.31,3.2-9.23,7.46H194.8z"/>
		<path d="M177.44,52.93V36.07c16.06,0.35,31.25,6.29,43.28,16.86h7.13l5.72-6.17c0.7-0.75,0.67-1.92-0.07-2.64
			c-15.21-14.73-36.19-23.18-57.55-23.18h-0.4c-1.04,0-1.89,0.84-1.89,1.89v30.11H177.44z M177.44,24.72
			c19.25,0.37,38.06,7.9,52.09,20.84l-5.14,5.54c-12.9-11.83-29.45-18.47-46.95-18.83V24.72z"/>
	</g>
	<g>
		<path d="M364.55,48.55l8.45-4.47l-4.17,8.85H373l2.65-5.62l0.27,4.89c0.01,0.25,0.05,0.49,0.08,0.73h3.83
			c-0.07-0.31-0.12-0.62-0.14-0.94l-0.48-8.67l9.74,6.17c0,0,0,0,0,0c0,0,0,0,0.01,0l5.42,3.43h17.06
			c-0.45-0.51-0.96-0.98-1.57-1.36c-2.96-1.88-6.73-1.4-9.18,0.89l-1.66-1.05c3.04-3.17,8-3.87,11.85-1.43
			c1.23,0.78,2.21,1.8,2.94,2.96h4.22c-1-2.45-2.73-4.62-5.14-6.14c-5.61-3.56-12.9-2.33-17.1,2.58l-1.61-1.02
			c4.77-5.78,13.23-7.26,19.72-3.15c2.98,1.89,5.05,4.65,6.14,7.74h3.97c-1.2-4.37-3.97-8.32-8.09-10.93c-3-1.9-6.33-2.82-9.64-2.9
			c-0.34-0.39-0.69-0.77-1.06-1.13l7.72-15.99c0.45-0.94,0.06-2.07-0.88-2.52c-0.94-0.45-2.07-0.06-2.52,0.88l-7.34,15.21
			c-0.02-0.01-0.03-0.02-0.05-0.03c-1.98-1.26-4.11-2.09-6.29-2.54l4.03-15.21c0.27-1.01-0.34-2.04-1.34-2.31
			c-1.01-0.27-2.04,0.33-2.31,1.34l-4.18,15.79c-5.02,0-9.97,1.99-13.61,5.79l-0.33-0.21c-0.57-0.36-1.3-0.39-1.89-0.07l-13.45,7.12
			c-0.92,0.49-1.27,1.63-0.78,2.55C362.49,48.69,363.63,49.04,364.55,48.55z M394.9,36.62c1.81,0.35,3.59,1.03,5.24,2.08
			c0.44,0.28,0.86,0.59,1.27,0.91c-0.76,0.18-1.51,0.42-2.25,0.7c-0.01-0.01-0.02-0.01-0.03-0.02c-1.48-0.94-3.08-1.54-4.72-1.84
			L394.9,36.62z M393.44,42.15c0.52,0.08,1.02,0.2,1.53,0.36c-0.73,0.51-1.42,1.1-2.08,1.72L393.44,42.15z M388.8,44.92l-1.99-1.26
			c0.83-0.56,1.72-0.99,2.66-1.26L388.8,44.92z M391.05,36.39l-0.51,1.94c-2.59,0.3-5.09,1.38-7.14,3.17l-1.66-1.05
			C384.33,38.01,387.64,36.61,391.05,36.39z"/>
	</g>
	<g>
		<path d="M295.62,52.93h3.87c-0.31-1.41-0.53-2.84-0.64-4.29l15.04-5.8c1.3,1.68,2.41,3.48,3.36,5.38
			c-3.19,0.16-6.32,1.73-8.3,4.23c-1.81-0.3-3.68-0.11-5.42,0.48h19.34c-0.13-1.05-0.38-2.1-0.77-3.13
			c-1.42-3.69-3.42-7.12-5.94-10.18c0,0,0,0,0,0l-0.2-0.24c-0.52-0.62-1.38-0.85-2.13-0.56l-17.61,6.79
			c-0.76,0.29-1.24,1.03-1.21,1.84l0.01,0.31C295.09,49.5,295.3,51.23,295.62,52.93z"/>
		<path d="M257.43,34.25l5.19,13.47c0.28,0.72,0.09,1.53-0.48,2.06c-1.01,0.93-1.84,2-2.49,3.14h4.71c0.12-0.12,0.22-0.26,0.35-0.38
			c1.71-1.58,2.27-4.01,1.43-6.19l-4.51-11.71l7.05-2.72l4.51,11.71c0.84,2.17,2.88,3.6,5.21,3.63c3.72,0.05,6.99,2.26,8.45,5.65
			h4.08l-0.39-1.02c-1.94-5.04-6.69-8.34-12.08-8.4c-0.78-0.01-1.46-0.48-1.74-1.21l-5.19-13.47l-2.72-7.05
			c-0.38-0.97-1.47-1.46-2.44-1.08l-10.57,4.07c-0.97,0.38-1.46,1.47-1.08,2.44L257.43,34.25z M265.96,24.9l1.36,3.52l-7.05,2.72
			l-1.36-3.52L265.96,24.9z"/>
	</g>
	<path d="M517.98,42.13c0.89,4.06,3.54,7.47,7.27,9.35l2.87,1.44h8.4l-9.57-4.82c-0.1-0.05-0.18-0.11-0.28-0.16L562.88,40l-0.7,1.21
		c-1.21-0.38-2.53-0.49-3.86-0.2c-4.06,0.89-6.64,4.92-5.75,8.99c0.24,1.1,0.72,2.09,1.36,2.93h16.76l11.02-13.84
		c2.59-3.26,3.56-7.46,2.66-11.53l-0.81-3.69c-0.22-1.02-1.23-1.66-2.25-1.44l-4.42,0.97l2.99-5.15c0.52-0.9,0.22-2.06-0.69-2.58
		c-0.9-0.52-2.06-0.21-2.58,0.69l-4.73,8.14l-53.27,11.69c-1.02,0.22-1.66,1.23-1.44,2.25L517.98,42.13z M560.74,52.06
		c-2.03,0.45-4.04-0.84-4.49-2.87s0.84-4.04,2.87-4.49c0.72-0.16,1.44-0.09,2.09,0.15c0.16,0.26,0.36,0.5,0.64,0.67
		c0.24,0.14,0.49,0.2,0.75,0.23c0.48,0.49,0.84,1.11,1,1.82C564.06,49.6,562.77,51.61,560.74,52.06z M578.74,36.74l-12.37,15.54
		c0.97-1.6,1.36-3.55,0.93-5.52c-0.31-1.39-1-2.59-1.92-3.55l2.5-4.3l11.04-2.42C578.86,36.56,578.81,36.65,578.74,36.74z
		 M574.31,27.83l5.96-1.31l0.4,1.84c0.28,1.29,0.29,2.59,0.08,3.85l-10.3,2.26L574.31,27.83z M569.31,28.93l-3.86,6.64l-42.24,9.27
		c-0.73-1.05-1.27-2.24-1.55-3.53l-0.4-1.84L569.31,28.93z"/>
	<g>
		<path d="M946.65,52.93h6.23l20.28-12.95c2.14,2.58,5.11,4.18,8.26,4.67l-12.97,8.28h6.23l13.13-8.38
			c-0.62,1.63-1.72,3.08-3.29,4.09l-2.82,1.8c-0.78,0.5-1.01,1.53-0.51,2.31l0.11,0.17h3.94c-0.11-0.19-0.21-0.38-0.32-0.56
			l1.41-0.9c3.38-2.16,5.27-5.76,5.4-9.49c5.38-4.2,6.78-11.9,3.04-17.77c-3.98-6.23-12.28-8.06-18.52-4.08
			c-5.75,3.67-7.74,11.03-4.89,17.04L946.65,52.93z M976.01,38.16l8.35-5.33l2.71,4.24c0.63,0.99,1.03,2.07,1.2,3.17
			C984.16,42.47,979.08,41.56,976.01,38.16z M978.04,22.94c4.67-2.98,10.9-1.61,13.89,3.06c2.43,3.8,1.97,8.63-0.8,11.91
			c-0.3-0.91-0.7-1.8-1.24-2.65l-3.61-5.65c-0.5-0.78-1.53-1.01-2.31-0.51l-9.76,6.23C972.32,30.9,973.85,25.61,978.04,22.94z"/>
	</g>
	<g>
		<path d="M888.82,52.93c0.21-0.19,0.4-0.39,0.61-0.58c2.46-2.22,4.68-4.63,6.67-7.21l16.88,7.35c-0.02,0.15-0.04,0.3-0.06,0.45
			h3.82c0.68-4.03,1.84-7.98,3.5-11.79l2.05-4.71l5.58-4.67c0.59-0.49,1.06-1.12,1.36-1.82c1.09-2.5-0.06-5.42-2.56-6.5l-18.63-8.11
			c-2.5-1.09-5.42,0.06-6.5,2.56c-0.3,0.7-0.44,1.47-0.4,2.23l0.39,7.27l-2.05,4.71c-2.91,6.69-7.14,12.56-12.56,17.44
			c-1.2,1.08-2.33,2.22-3.42,3.39H888.82z M904.99,19.39c0.26-0.59,0.95-0.86,1.54-0.6l18.63,8.11c0.59,0.26,0.86,0.95,0.6,1.54
			c-0.07,0.16-0.18,0.31-0.32,0.43l-5.03,4.2l-15.17-6.61l-0.35-6.55C904.89,19.74,904.92,19.55,904.99,19.39z M902.92,33.6
			l1.48-3.39l13.85,6.03l-1.48,3.39c-1.29,2.95-2.28,5.98-3.03,9.06l-15.4-6.7C900.1,39.35,901.64,36.55,902.92,33.6z"/>
	</g>
</g>
</svg>
