<svg xmlns="http://www.w3.org/2000/svg" viewBox="0 0 1215.9407 389.2327">
  <path d="M0 0s37.6062 61.8682 236.9593 92.6c0 0 63.4856 12.5354 86.13 73.5949 0 0-26.2839-31.945-103.518-27.497S45.6935 96.6438 0 0z" fill="#010101"/>
  <path d="M70.7643 125.3539s33.7647 35.5843 182.9762 29.3166c0 0 48.3219 0 84.3106 39.628 0 0-15.366-7.2786-65.3053-3.0328 0 0-13.3442.4044-39.4258 4.8525 0 0-101.9006 18.3987-162.5557-70.7643z" fill="#016460"/>
  <path d="M351.8 215.954s-9.5027-9.7048-31.5407-1.2131c0 0-41.852 18.1965-52.1634 20.8249 0 0-10.7157 5.0546-27.6991 5.2568 0 0-38.4149 1.4153-75.8189-28.5079 0 0 10.1092 7.0764 60.6551 2.224 0 0 30.1254-3.2349 58.8355-12.5354-.0004 0 44.8843-13.9507 67.7315 13.9507z" fill="#010101"/>
  <path d="M306.2356 229.5718a98.4054 98.4054 0 11-185.2184-47.335A157.0349 157.0349 0 0195.2 161.5211a135.7154 135.7154 0 00-17.56 67.0594c0 73.8091 58.2953 133.6432 130.2059 133.6432S338.0511 302.39 338.0511 228.5805q0-4.9569-.3519-9.8238a49.6594 49.6594 0 00-14.0028 3.3724s-7.7838 3.384-17.4608 7.4427z" fill="#010101"/>
  <path d="M265.2971 244.04a59.3669 59.3669 0 11-109.2059-44.1028 153.154 153.154 0 01-28.9156-13.8295 91.3561 91.3561 0 10172.0088 44.9658c-11.6684 4.8638-25.2112 10.31-30.4016 11.6332 0 .0002-1.2367.5758-3.4857 1.3333z" fill="#016460"/>
  <path d="M463.5574 118.7q58.4385 0 89.7622 53.6074 13.7109 24.936 13.7139 50.4912v2.4941q0 61.8678-56.1016 93.502a103.9154 103.9154 0 01-46.7514 11.2207h-1.2466q-46.7513 0-75.4253-35.5312h-.6235l.6235 59.2187v34.2842l-1.2466 1.2461h-23.064q-1.87-.624-1.87-3.74v-256.82q.4673-3.74 1.87-3.7392h22.4405l1.2466 1.2461V154.23h.6235q30.6987-35.5315 76.0488-35.53zm-76.6723 105.3452q0 39.8951 34.2841 67.3222 20.7239 13.7139 42.3882 13.7129 39.8915 0 64.2051-37.4 11.841-20.8813 11.8433-43.0117 0-30.3882-25.5572-60.4648-22.9078-20.5709-51.7383-20.57-37.09 0-62.3349 36.7773-13.0907 22.908-13.0903 43.6341zM684.2229 119.1663q64.0489 0 92.2559 66.6982 7.481 24.1583 7.4805 45.5049l-1.87 1.2471H605.6809c-.833 0-1.2465.623-1.2465 1.87q0 27.2724 27.4272 54.2314 21.5054 16.83 47.375 16.83 45.6593 0 68.5684-44.2578h27.4267l1.2471 1.2471v.623q-15.2739 39.7383-54.2314 58.5947a102.3967 102.3967 0 01-41.7647 8.7276q-52.9856 0-86.6455-47.375a117.1228 117.1228 0 01-17.4536-61.7119q0-48.7749 42.3877-84.1524 28.8287-18.076 65.4516-18.0769zm-78.542 90.3857l.6231.624h146.4873l1.2471-1.247q-1.4034-17.1417-19.3242-41.1416-21.3516-24.3107-54.8545-24.3106-51.5838 0-71.0621 51.1153-3.1192 8.7289-3.1167 14.9599zM899.2786 118.2317h.6231q43.0122 0 72.9326 34.2842h.623v-24.3106q.4673-3.7411 1.87-3.74h22.4405l1.247 1.2461v261.8074l-1.247 1.2471h-23.0634l-1.87-1.87.623-44.8819v-46.128h-.623q-27.4307 33.6606-75.4258 33.6611h-.6231q-56.4154 0-89.7627-51.7383-13.7152-26.9589-13.7138-53.6074 0-49.5572 41.7646-85.3994 28.2041-20.5708 64.205-20.5703zM821.36 224.8245q0 41.2983 34.9082 67.3213 19.9452 12.47 41.1406 12.4677 38.8037 0 63.582-37.4013 12.4659-20.7246 12.4668-41.1416v-4.9864q0-37.0869-35.5312-65.4521-20.4171-12.4659-39.8936-12.4668-35.6895 0-57.9717 28.0508-18.7018 26.3379-18.7011 53.6084zM1116.2044 119.1663q64.0488 0 92.2558 66.6982 7.4811 24.1583 7.4805 45.5049l-1.87 1.2471h-176.4083q-1.2495 0-1.2471 1.87 0 27.2724 27.4278 54.2314 21.5053 16.83 47.375 16.83 45.6591 0 68.5683-44.2578h27.4268l1.247 1.2471v.623q-15.2739 39.7383-54.2314 58.5947a102.3959 102.3959 0 01-41.7646 8.7276q-52.9864 0-86.6456-47.375a117.1234 117.1234 0 01-17.4541-61.7119q0-48.7749 42.3877-84.1524 28.8297-18.076 65.4522-18.0769zm-78.542 90.3857l.623.624h146.4873l1.2471-1.247q-1.4033-17.1417-19.3242-41.1416-21.3516-24.3107-54.8545-24.3106-51.5831 0-71.0625 51.1153-3.1186 8.7289-3.1162 14.9599z" fill="#010101"/>
  <path d="M1185.1032 166.195s-1.6432-13.4827-24.3025-20.1413c0 0-44.2907-11.0019-54.0751-15.185 0 0-11.5806-2.5028-25.1867-12.6691 0 0-31.3582-22.2345-42.8585-68.7339 0 0 3.7229 11.7648 46.8018 38.6469 0 0 25.8835 15.7494 54.3316 25.8229 0 0 44.1167 16.2167 45.2894 52.2595z" fill="#010101"/>
</svg>