<svg xmlns="http://www.w3.org/2000/svg" viewBox="0 0 1215.9407 389.2327"><title>opeqe-logo</title><path d="M0,0S37.6062,61.8682,236.9593,92.6c0,0,63.4856,12.5354,86.13,73.5949,0,0-26.2839-31.945-103.518-27.497S45.6935,96.6438,0,0Z" style="fill:#010101"/><path d="M70.7643,125.3539s33.7647,35.5843,182.9762,29.3166c0,0,48.3219,0,84.3106,39.628,0,0-15.366-7.2786-65.3053-3.0328,0,0-13.3442.4044-39.4258,4.8525C233.32,196.1182,131.4194,214.5169,70.7643,125.3539Z" style="fill:#016460"/><path d="M351.8,215.954s-9.5027-9.7048-31.5407-1.2131c0,0-41.852,18.1965-52.1634,20.8249,0,0-10.7157,5.0546-27.6991,5.2568,0,0-38.4149,1.4153-75.8189-28.5079,0,0,10.1092,7.0764,60.6551,2.224,0,0,30.1254-3.2349,58.8355-12.5354C284.0681,202.0033,328.9528,188.0526,351.8,215.954Z" style="fill:#010101"/><path d="M306.2356,229.5718a98.4054,98.4054,0,1,1-185.2184-47.335A157.0349,157.0349,0,0,1,95.2,161.5211a135.7154,135.7154,0,0,0-17.56,67.0594c0,73.8091,58.2953,133.6432,130.2059,133.6432S338.0511,302.39,338.0511,228.5805q0-4.9569-.3519-9.8238a49.6594,49.6594,0,0,0-14.0028,3.3724S315.9126,225.5131,306.2356,229.5718Z" style="fill:#010101"/><path d="M265.2971,244.04a59.3669,59.3669,0,1,1-109.2059-44.1028,153.154,153.154,0,0,1-28.9156-13.8295,91.3561,91.3561,0,1,0,172.0088,44.9658c-11.6684,4.8638-25.2112,10.31-30.4016,11.6332C268.7828,242.7069,267.5461,243.2825,265.2971,244.04Z" style="fill:#016460"/><path d="M463.5574,118.7q58.4385,0,89.7622,53.6074,13.7109,24.936,13.7139,50.4912v2.4941q0,61.8678-56.1016,93.502a103.9154,103.9154,0,0,1-46.7514,11.2207h-1.2466q-46.7513,0-75.4253-35.5312h-.6235l.6235,59.2187v34.2842l-1.2466,1.2461H363.198q-1.87-.624-1.87-3.74v-256.82q.4673-3.74,1.87-3.7392h22.4405l1.2466,1.2461V154.23h.6235Q418.2073,118.6985,463.5574,118.7ZM386.8851,224.0452q0,39.8951,34.2841,67.3222,20.7239,13.7139,42.3882,13.7129,39.8915,0,64.2051-37.4,11.841-20.8813,11.8433-43.0117,0-30.3882-25.5572-60.4648-22.9078-20.5709-51.7383-20.57-37.09,0-62.3349,36.7773Q386.8847,203.3191,386.8851,224.0452Z" style="fill:#010101"/><path d="M684.2229,119.1663q64.0489,0,92.2559,66.6982,7.481,24.1583,7.4805,45.5049l-1.87,1.2471H605.6809c-.833,0-1.2465.623-1.2465,1.87q0,27.2724,27.4272,54.2314,21.5054,16.83,47.375,16.83,45.6593,0,68.5684-44.2578h27.4267l1.2471,1.2471v.623q-15.2739,39.7383-54.2314,58.5947a102.3967,102.3967,0,0,1-41.7647,8.7276q-52.9856,0-86.6455-47.375a117.1228,117.1228,0,0,1-17.4536-61.7119q0-48.7749,42.3877-84.1524Q647.6,119.1672,684.2229,119.1663Zm-78.542,90.3857.6231.624H752.7913l1.2471-1.247q-1.4034-17.1417-19.3242-41.1416-21.3516-24.3107-54.8545-24.3106-51.5838,0-71.0621,51.1153Q605.6784,203.321,605.6809,209.552Z" style="fill:#010101"/><path d="M899.2786,118.2317h.6231q43.0122,0,72.9326,34.2842h.623V128.2053q.4673-3.7411,1.87-3.74h22.4405l1.247,1.2461V387.5188l-1.247,1.2471H974.7044l-1.87-1.87.623-44.8819V295.886h-.623q-27.4307,33.6606-75.4258,33.6611h-.6231q-56.4154,0-89.7627-51.7383-13.7152-26.9589-13.7138-53.6074,0-49.5572,41.7646-85.3994Q863.2777,118.2312,899.2786,118.2317ZM821.36,224.8245q0,41.2983,34.9082,67.3213,19.9452,12.47,41.1406,12.4677,38.8037,0,63.582-37.4013,12.4659-20.7246,12.4668-41.1416v-4.9864q0-37.0869-35.5312-65.4521-20.4171-12.4659-39.8936-12.4668-35.6895,0-57.9717,28.0508Q821.3593,197.554,821.36,224.8245Z" style="fill:#010101"/><path d="M1116.2044,119.1663q64.0488,0,92.2558,66.6982,7.4811,24.1583,7.4805,45.5049l-1.87,1.2471H1037.6624q-1.2495,0-1.2471,1.87,0,27.2724,27.4278,54.2314,21.5053,16.83,47.375,16.83,45.6591,0,68.5683-44.2578h27.4268l1.247,1.2471v.623q-15.2739,39.7383-54.2314,58.5947a102.3959,102.3959,0,0,1-41.7646,8.7276q-52.9864,0-86.6456-47.375a117.1234,117.1234,0,0,1-17.4541-61.7119q0-48.7749,42.3877-84.1524Q1079.5819,119.1672,1116.2044,119.1663Zm-78.542,90.3857.623.624h146.4873l1.2471-1.247q-1.4033-17.1417-19.3242-41.1416-21.3516-24.3107-54.8545-24.3106-51.5831,0-71.0625,51.1153Q1037.66,203.321,1037.6624,209.552Z" style="fill:#010101"/><path d="M1185.1032,166.195s-1.6432-13.4827-24.3025-20.1413c0,0-44.2907-11.0019-54.0751-15.185,0,0-11.5806-2.5028-25.1867-12.6691,0,0-31.3582-22.2345-42.8585-68.7339,0,0,3.7229,11.7648,46.8018,38.6469,0,0,25.8835,15.7494,54.3316,25.8229C1139.8138,113.9355,1183.9305,130.1522,1185.1032,166.195Z" style="fill:#010101"/></svg>